<?xml version="1.0" standalone="no"?>
<!DOCTYPE svg PUBLIC "-//W3C//DTD SVG 1.1//EN" "http://www.w3.org/Graphics/SVG/1.1/DTD/svg11.dtd" >
<svg xmlns="http://www.w3.org/2000/svg" xmlns:xlink="http://www.w3.org/1999/xlink" version="1.1">
<metadata>
Created by FontForge 20170731 at Thu Jan 16 18:42:13 2020
 By Aleksey,,,
Copyright 2015 The Sen Project Authors (https://github.com/philatype/Sen)
</metadata>
<defs>
<font id="Sen-Regular" horiz-adv-x="622" >
  <font-face 
    font-family="Sen"
    font-weight="400"
    font-stretch="normal"
    units-per-em="1024"
    panose-1="0 0 0 0 0 0 0 0 0 0"
    ascent="819"
    descent="-205"
    x-height="500"
    cap-height="670"
    bbox="-250 -255 1002 940"
    underline-thickness="50"
    underline-position="-175"
    unicode-range="U+000D-263A"
  />
<missing-glyph horiz-adv-x="512" 
d="M51 -240h410v960h-410v-960zM102 -189v858h308v-858h-308z" />
    <glyph glyph-name="smileface" unicode="&#x3a;D" horiz-adv-x="579" 
d="M544 335q24 -70 9.5 -139.5t-60.5 -123.5t-117 -78q-52 -18 -105 -14t-100 27t-82.5 62.5t-53.5 91.5q-18 53 -14 105.5t27 99.5t62.5 82.5t91.5 53.5q71 24 140 9.5t123.5 -60.5t78.5 -116zM370 14q64 22 106.5 72t56 114t-9.5 128q-22 65 -72 107t-113.5 55.5
t-127.5 -8.5q-8 -2 -15.5 -5.5t-14.5 -7.5v-1q2 -6 -3 -8t-7 4q-4 -2 -9 -5l-10 -6q-2 -2 -3 -2l-11 -8q5 0 6 -4q2 -5 -4 -7q-5 -2 -7 4v3q-7 -6 -14 -13l-14 -14q3 -5 -3 -7q-1 -1 -3 0q-4 -6 -6 -8q3 -3 3 -4q2 -5 -3 -7q-4 -1 -7 2l-2 -4t-3 -4q5 0 6 -5q2 -5 -4 -7
q-4 -1 -7 3l-6 -11q5 2 7 -4q2 -5 -3 -7t-7 4q-2 -4 -4 -10q4 0 5 -3q2 -6 -4 -8q-4 0 -5 2l-3 -11l3 -3q2 -5 -5 -7q-1 -1 -3 -1q-3 -12 -5 -24.5t-3 -26.5q4 -2 5 -4q2 -5 -4 -7l-1 -1q0 -7 0.5 -15.5t1.5 -17.5q2 -2 2 -3q2 -3 -1 -6l2 -8t2 -9q5 3 7 -3t-4 -7v-1
q1 -2 2 -5l2 -6l3 -8q5 2 7 -4q2 -5 -3 -7q2 -4 4 -7.5t3 -7.5q5 0 5 -4q2 -2 0 -4q7 -15 18 -28l0.5 0.5t1.5 0.5q5 2 7 -3t-2 -7q6 -7 12.5 -13t12.5 -13q4 0 6 -4v-1q3 -2 7 -6q2 3 4 3q5 2 7 -3q0 -5 -2 -6q4 -4 11 -7q-2 5 3 7q6 2 8 -4q2 -5 -4 -7q15 -9 30 -15
q0 1 -1 2q-2 5 4 7q5 2 7 -3q2 -6 -3 -9h-2q5 -2 13 -4q-2 7 4 9q5 2 7 -5q1 -4 -3 -7l11 -3q0 4 4 4q5 2 7 -3v-3q2 -1 4.5 -1t4.5 -1l1 1q5 2 7 -2q9 -1 18 -1.5t19 0.5q0 4 3 4q6 2 8 -3v-1q5 1 10.5 1.5t9.5 1.5q-2 0 -2 2q-2 6 4 8q5 2 7 -4q0 -3 -1 -5q15 3 34 9z
M271 463q-5 -2 -7 3t3 7t7 -3t-3 -7zM224 460q-5 -2 -7 4q-2 5 4 7q5 2 7 -3q2 -6 -4 -8zM290 453q-6 -2 -8 4q-2 5 4 7q5 2 7 -4q2 -5 -3 -7zM242 453q-5 -2 -7 4q-2 5 4 7q5 2 7 -4q2 -5 -4 -7zM196 451q-6 -2 -8 4q-2 5 4 7q5 2 7 -4q2 -5 -3 -7zM307 446q-5 -3 -7 3t4 8
t8 -4q2 -5 -5 -7zM262 444q-6 -2 -8 3t3 7q7 2 9 -3t-4 -7zM214 444q-4 -2 -8 3q-2 5 5 7q5 2 7 -3t-4 -7zM166 441q-5 0 -5 6t5 6q6 0 6 -6t-6 -6zM327 436q-5 -2 -7 4q-2 5 4 7q5 2 7 -3q1 -4 -4 -8zM273 440q-2 5 3 7t7 -3q2 -6 -3 -8t-7 4zM226 438q-2 5 4 7q5 2 7 -4
q2 -5 -4 -7q-5 -2 -7 4zM186 434q-5 -2 -7 4q-2 5 3 7t7 -4q2 -5 -3 -7zM345 429q-5 -2 -7 4q-2 5 3 7q6 2 8 -4q2 -5 -4 -7zM291 431q-2 5 4 7q5 2 7 -4q2 -5 -3 -8q-6 -2 -8 5zM244 430q-2 6 3 8q6 2 8 -4q1 -4 -4 -8q-6 -2 -7 4zM197 430q0 6 6 6t6 -6t-6 -6t-6 6z
M158 424q-7 -2 -8 4q-2 5 3 7q7 2 9 -3q2 -6 -4 -8zM365 419q-6 -2 -8 3q-2 6 4 8t7 -4q2 -5 -3 -7zM310 422q-1 2 0.5 4.5t3.5 3.5q6 2 7 -4q2 -5 -4 -7q-5 -2 -7 3zM267 428q6 2 7 -4q2 -5 -3 -7t-7 3t3 8zM222 428q5 0 5 -6t-5 -6q-6 0 -6 6t6 6zM347 407q-2 4 3 6
q3 0 5 -1q9 6 20 9q1 0 1 0.5t1 0.5q17 6 35 3.5t34 -11.5q34 -19 48 -65q2 -7 3 -12.5t2 -10.5q0 -7 -6 -9q-5 -2 -9 0q-4 4 -4 6q-1 10 -5 20q-13 41 -44 57q-23 11 -48 3q-4 -1 -7.5 -3t-7.5 -4q1 0 2 -1q9 -4 12.5 -14.5t-1.5 -18.5q-3 -7 -12 -11q-10 -3 -21 2
q-3 2 -5.5 4.5l-4.5 4.5q-4 -13 -3.5 -29t6.5 -36q3 -7 -3 -13v-1q2 -5 -3 -7q-6 -2 -8 4v4q-1 1 -2 2.5l-3 4.5q-3 9 -4.5 18.5t-2.5 19.5q-3 0 -7 4q-2 5 5 7q1 1 2 1q1 19 8.5 36t23.5 30zM130 414q-6 -2 -8 4q-2 5 4 7q5 2 7 -4q2 -5 -3 -7zM169 420q0 5 6 5t6 -5
q0 -6 -6 -6t-6 6zM329 413q-2 5 4 7q5 2 7 -3q2 -6 -4 -8q-5 -2 -7 4zM285 420q5 2 7 -4q2 -5 -3 -7t-7 4q-2 5 3 7zM239 418q5 2 7 -4q2 -5 -4 -7q-5 -2 -7 4q-2 5 4 7zM191 418q5 2 7 -4q2 -5 -3 -7t-7 3q-2 6 3 8zM148 405q-5 -2 -7 3q-2 6 3 8q6 2 8 -4q2 -5 -4 -7z
M304 411q6 2 8 -4t-4 -7q-6 -2 -8 3q-2 6 4 8zM256 410q7 2 9 -3t-4 -7t-8 3t3 7zM206 403q0 6 7 6q5 0 5 -6t-5 -6q-7 0 -7 6zM163 408q6 2 8 -3q2 -6 -4 -8q-5 -2 -7 4q-2 5 3 7zM120 395q-5 -2 -7 4q-2 5 4 7q5 2 7 -3q2 -6 -4 -8zM326 392q-5 -2 -7 4q-2 5 4 7q5 2 7 -3
q2 -6 -4 -8zM276 401q5 2 7 -3q2 -6 -3 -8t-7 4q-2 5 3 7zM229 401q5 2 7 -4q2 -5 -4 -7q-5 -2 -7 4q-2 5 4 7zM131 392q-2 5 4 7q5 2 7 -4q2 -5 -4 -7q-5 -2 -7 4zM178 394q0 5 6 5t6 -5q0 -6 -6 -6t-6 6zM294 394q5 2 7 -4q2 -5 -3 -7t-7 3q-2 6 3 8zM248 392q5 2 7 -4
q2 -5 -4 -7q-5 -2 -7 3q-2 6 4 8zM200 391q5 2 8 -3q2 -6 -4 -7q-5 -2 -7 3t3 7zM111 379q-6 -2 -8 3q-2 6 4 7q5 2 7 -3t-3 -7zM153 389q6 2 8 -3q3 -5 -3 -7t-8 3t3 7zM314 384q5 2 7 -3q2 -6 -3 -8q-6 -2 -8 4q-3 5 4 7zM274 381q2 -7 -4 -9q-5 -2 -7 5q-2 5 3 7
q6 2 8 -3zM306 266q-5 -2 -7 3q0 1 -0.5 1h-0.5q-5 -2 -9 1q-3 2 -3 7q-1 8 -5 19q-11 32 -39 46q-25 13 -51 5l-1 -1q-8 -3 -17 -8q2 0 6 -2q9 -4 12.5 -13.5t-0.5 -17.5t-13 -11q-10 -3 -18 1t-13 12q-7 -22 0 -51q14 -1 26 -10v-0.5t1 -0.5q4 0 5 -4q2 -5 -4 -7h-4
q-4 -2 -6 1q-10 7 -24 7h-6t-6 -2q-4 -1 -7 -3l-6 -4q0 -1 -2 -1q-5 -2 -8 2q-2 1 -2 5q0 2 2 3q-4 0 -4 3q-2 6 4 7q5 2 7 -3v-1q3 2 5.5 3.5t5.5 2.5h3q-3 12 -3 24q-2 2 -3 4q-2 5 4 7q1 13 8 30q9 20 27 34v1q-2 5 3 7q4 1 7 -2q8 5 15 6q1 1 1.5 1h0.5q2 4 4 5
q4 1 7 -2q12 1 22 0q-3 1 -4 4q-2 6 4 8q5 2 7 -3q2 -7 -3 -9h-1q3 -1 5.5 -1.5t5.5 -1.5q0 6 4 7q5 2 7 -4q1 -3 -2 -6q6 -2 10 -4q0 4 4 4q6 2 8 -3q1 -4 -2 -7q14 -9 23 -23q5 0 5 -4q3 -2 0 -5q6 -9 9 -19q2 -7 2.5 -12.5t1.5 -10.5v-2q6 0 6 -5q2 -6 -4 -7zM172 382
q6 2 8 -4t-4 -8q-5 -2 -7 4t3 8zM126 380q5 2 7 -5q2 -5 -4 -7q-5 -2 -7 4t4 8zM289 363q-5 -2 -7 4q-2 5 3 7t7 -4q2 -5 -3 -7zM144 372q5 2 7 -4q2 -5 -4 -7q-5 -2 -7 3q-2 6 4 8zM99 358q-6 0 -6 6t6 6q5 0 5 -6t-5 -6zM311 363q2 -6 -4 -7q-6 -2 -8 3t4 7t8 -3zM116 362
q5 2 7 -3q2 -6 -3 -8t-7 4q-2 5 3 7zM279 346q-5 -2 -7 4q-2 5 3 7q6 2 8 -4q2 -5 -4 -7zM91 342q-5 -2 -7 3q-2 6 3 8q6 2 8 -4q2 -5 -4 -7zM135 353q5 2 7 -4q2 -5 -4 -7q-5 -2 -7 4q-2 5 4 7zM298 337q-5 -2 -7 4q-3 5 3 7q5 2 7 -4q2 -5 -3 -7zM107 343q5 2 7 -3t-3 -7
q-2 -1 -5 0t-4 3q-2 5 5 7zM129 324q-5 -2 -7 5q-2 5 3 7t7 -4q2 -5 -3 -8zM82 322q-5 -2 -7 5q-2 5 3 7t7 -4t-3 -8zM96 326q6 2 8 -4q3 -5 -4 -7q-5 -2 -7 3t3 8zM303 321q6 2 8 -4t-4 -7q-5 -2 -7 3q-2 6 3 8zM123 313q2 -6 -3 -8q-6 -2 -8 4q-2 5 4 7q5 2 7 -3zM72 305
q-5 -2 -7 4q-2 5 4 7q5 2 7 -4q2 -5 -4 -7zM420 305q-6 -2 -8 3q-3 5 4 7q5 2 7 -3t-3 -7zM467 305q-6 -2 -8 3q-2 6 4 7q6 2 8 -3t-4 -7zM87 307q5 2 7 -4q2 -5 -3 -7t-7 3q-2 6 3 8zM438 295q-5 -2 -7 4q-2 5 4 7q5 2 7 -4q2 -5 -4 -7zM391 295q-5 -2 -7 4q-2 5 3 7t7 -4
q2 -5 -3 -7zM110 289q-6 -2 -8 3q-2 6 4 7q6 2 8 -3t-4 -7zM63 286q-5 -2 -7 4q-2 5 4 7q5 3 7 -3t-4 -8zM410 286q-5 -2 -7 3q-2 6 3 8q6 2 8 -4t-4 -7zM363 286q-6 -2 -8 3t4 7t8 -3t-4 -7zM477 292q40 19 37 -53q-2 -33 -14.5 -73t-42 -74.5t-82.5 -53.5q0 -5 -4 -6
q-5 -2 -7 3q-5 -1 -9.5 -2t-9.5 -2l1 -1q2 -5 -4 -7q-5 -2 -7 3v4q-10 -1 -19 0t-19 2l2 -3q2 -5 -4 -7q-5 -2 -7 3q-2 6 3 8h1q-5 0 -11 2q0 -3 -4 -5q-5 -2 -7 3q-1 3 0 6l-7 3q-2 -4 -4 -5q-6 -2 -8 4q-1 3 1 5l-9 5q-2 -4 -4 -4q-5 -2 -7 3q-2 4 2 6q-3 2 -5.5 4t-4.5 3
q0 -1 0.5 -1t0.5 -1q2 -5 -4 -7q-5 -2 -7 4q-2 5 4 7h3q-17 14 -28 26q-6 -2 -8 3q0 3 1 4q-12 13 -20 27q-5 -2 -7 4q-2 4 2 6q-2 5 -5 9t-5 8q-2 0 -2 3q-1 2 0 3q-2 4 -2 6q-3 7 -1 14q-5 0 -6 4q-2 5 3 7t7 -3q1 0 1 -0.5v-0.5q4 5 17 9q0 3 4 5q3 1 7 -3q5 1 9 2l8 2v1
q-2 5 4 7q5 2 8 -3v-2q5 1 10.5 2.5t10.5 2.5q-3 0 -5 4q-2 5 4 7q5 2 7 -4q2 -4 -2 -6q6 2 12.5 3.5t12.5 3.5q-4 0 -6 4q-2 6 4 8t8 -3q2 -4 -2 -8q11 3 20 5.5t19 6.5q0 1 2 1q2 2 2 0l23 7l1.5 1.5l1.5 1.5h4q5 2 10.5 3.5t10.5 2.5q2 3 3 3q4 1 5 0q5 2 10.5 4t10.5 3
q0 2 3 3h4q5 2 10.5 4t11.5 3l2 2h3q20 8 35 14.5t23 9.5zM454 295q5 2 7 -3q3 -5 -4 -7q-5 -2 -7 3t4 7zM310 287q-3 5 3 7q5 2 7 -3t-3 -7t-7 3zM78 290q5 2 7 -4q2 -5 -4 -7q-5 -2 -7 4q-2 5 4 7zM382 276q-5 -2 -7 4q-2 5 3 7q6 2 8 -3q2 -6 -4 -8zM430 275
q-2 -1 -4.5 0.5t-3.5 3.5q-2 5 4 7q5 2 7 -4q2 -5 -3 -7zM53 269q-6 -2 -8 3q-2 6 4 8t8 -3q2 -7 -4 -8zM103 277q2 -6 -3 -8t-7 3q-2 6 3 8t7 -3zM353 266q-5 -2 -7 3q-2 7 4 9q5 2 7 -5q2 -5 -4 -7zM401 265q-5 -2 -7 3q-2 6 3 8q6 2 7 -4q2 -5 -3 -7zM119 261q-5 -2 -7 4
q-2 5 3 7t7 -3q2 -6 -3 -8zM68 270q6 2 8 -4q2 -5 -4 -7q-5 -2 -7 4q-2 5 3 7zM326 256q-4 -1 -8 4q-2 5 4 7q5 2 7 -3q2 -6 -3 -8zM278 256q-5 -2 -7 4q-2 5 4 7q5 2 7 -4q2 -5 -4 -7zM373 255q-5 -2 -7 4q-2 5 4 7q5 2 7 -4q2 -5 -4 -7zM232 254q-5 -2 -7 4q-3 5 3 7
q5 2 7 -4q2 -5 -3 -7zM90 252q-5 -2 -7 3q-2 6 4 8q5 2 7 -4q2 -5 -4 -7zM250 247q-6 -2 -8 3q-1 4 4 8q5 2 7 -4q2 -5 -3 -7zM297 247q-5 -2 -7 3q-2 6 3 8q6 2 8 -4q2 -5 -4 -7zM341 256q5 2 7 -3t-3 -7q-6 -2 -8 3t4 7zM203 245q-5 -2 -7 3t3 7t7 -3q3 -5 -3 -7zM61 253
q5 0 5 -5q0 -6 -5 -6q-6 0 -6 6q0 5 6 5zM266 248q5 2 7 -3q2 -6 -4 -8q-5 -2 -7 4q-2 5 4 7zM222 237q-5 -2 -7 4q-2 5 3 7t7 -3q2 -6 -3 -8zM317 236q-5 -2 -7 4q-3 5 3 7q5 2 7 -4q3 -5 -3 -7zM77 244q6 2 8 -4q2 -5 -4 -7q-5 -2 -7 4q-3 5 3 7zM241 228q-6 -2 -8 4
q-2 5 4 7q5 2 7 -4q2 -5 -3 -7zM193 228q-5 -2 -7 3q-2 6 4 8q5 2 7 -4q2 -5 -4 -7zM288 227q-5 -2 -7 3q-2 6 4 8q5 2 7 -4q2 -5 -4 -7zM96 236q5 2 7 -3t-4 -7q-5 -2 -7 3t4 7zM57 231q2 -5 -5 -7q-5 -2 -7 3t4 7t8 -3zM213 218q-7 -2 -9 3q-2 6 5 8q5 2 7 -3q2 -6 -3 -8z
M166 217q-6 -2 -8 4t4 8q5 2 7 -3q2 -7 -3 -9zM72 215q-6 -2 -8 4t4 8q5 2 7 -4t-3 -8zM140 215q2 -5 -3 -7t-7 3q-2 6 3 8t7 -4zM180 219q5 2 7 -4q2 -5 -3 -7t-7 4q-2 5 3 7zM90 206q-5 -2 -7 3q-2 6 3 8q6 2 8 -4q2 -5 -4 -7zM106 209q5 3 7 -3t-4 -8t-8 4q-2 5 5 7z
M152 209q6 2 8 -3t-5 -7q-5 -2 -7 3t4 7zM66 204q2 -6 -4 -8q-5 -2 -7 4q-3 5 4 7q5 2 7 -3zM81 189q-6 -2 -8 4q-2 5 4 7q5 2 7 -4q2 -5 -3 -7zM128 189q-6 -2 -8 4q-2 5 4 7q5 2 7 -4q2 -5 -3 -7zM99 180q-5 -2 -7 3t3 7t7 -3t-3 -7zM75 177q2 -6 -4 -8q-5 -2 -7 5
q-2 5 4 7q5 2 7 -4zM116 180q5 2 7 -4t-4 -8q-5 -2 -7 5q-2 5 4 7zM133 172q6 2 8 -4q2 -5 -4 -7q-5 -2 -7 3t3 8zM91 159q-6 -2 -8 3t4 7q5 2 7 -3t-3 -7zM109 151q-6 -2 -8 4q-2 5 5 7q5 2 7 -4q2 -5 -4 -7zM128 142q-5 -2 -7 3q-2 6 4 8q5 2 7 -4q2 -5 -4 -7zM84 149
q2 -5 -3 -7t-7 3t3 7t7 -3zM144 145q6 0 6 -5q0 -6 -6 -6q-5 0 -5 6q0 5 5 5zM103 138q0 -6 -5 -6q-6 0 -6 6q0 5 6 5q5 0 5 -5zM118 125q-5 -2 -7 4q-2 5 4 7q5 2 7 -4q2 -5 -4 -7zM86 126q5 2 7 -3q2 -6 -3 -8q-6 -2 -8 3q-2 6 4 8zM137 115q-5 -2 -7 3q-1 6 3 8q6 2 8 -3
q2 -6 -4 -8zM148 111q-2 5 3 7t9 -4q2 -5 -5 -7q-5 -2 -7 4zM113 112q2 -5 -4 -7q-1 -1 -4 0.5t-4 3.5q-2 5 5 7q5 2 7 -4zM131 105q2 -5 -4 -7q-5 -2 -7 3q-2 6 4 8q5 2 7 -4zM171 109q5 2 7 -4q2 -5 -3 -7t-7 3q-2 6 3 8zM373 59q2 1 5 2l6 2q-16 19 -39 29.5t-45 9.5
t-34 -15q-10 2 -17.5 2.5t-16.5 -2.5q8 -7 11 -10t14 -10q8 -4 15 -7t14 -5q18 -5 38 -5q22 0 49 9zM150 96q1 -4 -4 -8q-5 -2 -7 4q-2 5 3 7q6 2 8 -3zM168 88q2 -5 -3 -7t-7 4q-2 5 3 7t7 -4zM115 90q5 2 7 -4q2 -5 -4 -7q-5 -2 -7 4q-2 5 4 7zM133 82q5 2 7 -3t-4 -7
q-5 -2 -7 3t4 7zM177 75q-2 5 3 7t7 -3t-3 -7t-7 3zM205 72q2 -7 -3 -9q-6 -2 -8 4t4 8q5 2 7 -3zM151 73q7 2 9 -5q3 -5 -5 -7q-5 -2 -7 4t3 8zM177 61q2 -5 -3 -7t-7 3q-2 6 3 8t7 -4zM189 55q5 2 7 -3t-3 -7t-7 3q-3 5 3 7zM208 48q5 2 7 -4q2 -5 -3 -7q-7 -2 -9 4
q-2 5 5 7zM227 39q5 2 7 -4q2 -5 -4 -7q-5 -2 -7 3q-2 6 4 8zM179 38q5 2 7 -3t-3 -7t-7 3t3 7zM244 31q6 2 8 -3q2 -6 -4 -8q-5 -2 -7 4q-2 5 3 7zM311 24q5 2 7 -4t-3 -8q-6 -2 -8 4q-2 7 4 8zM264 22q5 2 7 -5q3 -5 -3 -7q-5 -2 -7 4t3 8zM282 13q5 2 7 -3t-3 -7t-7 3
t3 7z" />
    <glyph glyph-name="tt" unicode="tt" horiz-adv-x="786" 
d="M223 644v-144h197q49 0 81 33.5t57 100.5h18v-134h146v-77h-146v-293q0 -31 16 -49t49 -18q30 0 50 7.5t35 16.5v-67q-20 -16 -42.5 -25.5t-60.5 -9.5q-64 0 -96.5 38.5t-32.5 102.5v297h-271v-293q0 -31 16 -49t49 -18q30 0 50 7.5t35 16.5v-67q-20 -16 -42.5 -25.5
t-60.5 -9.5q-64 0 -96.5 38.5t-32.5 102.5v297h-96v24q49 22 82 72.5t58 124.5h38z" />
    <glyph glyph-name=".notdef" horiz-adv-x="512" 
d="M51 -240h410v960h-410v-960zM102 -189v858h308v-858h-308z" />
    <glyph glyph-name=".null" horiz-adv-x="0" 
 />
    <glyph glyph-name="nonmarkingreturn" horiz-adv-x="341" 
 />
    <glyph glyph-name="NULL" horiz-adv-x="0" 
 />
    <glyph glyph-name="NULL" horiz-adv-x="0" 
 />
    <glyph glyph-name="CR" unicode="&#xd;" horiz-adv-x="300" 
 />
    <glyph glyph-name="space" unicode=" " horiz-adv-x="300" 
 />
    <glyph glyph-name="exclam" unicode="!" horiz-adv-x="300" 
d="M191 670v-450h-82v450h82zM150 122q29 0 49.5 -20.5t20.5 -49.5q0 -28 -20.5 -49t-49.5 -21t-49.5 21t-20.5 49q0 29 20.5 49.5t49.5 20.5z" />
    <glyph glyph-name="quotedbl" unicode="&#x22;" horiz-adv-x="442" 
d="M362 695v-254h-82v254h82zM162 695v-254h-82v254h82z" />
    <glyph glyph-name="numbersign" unicode="#" horiz-adv-x="770" 
d="M620 240v-70h-128l-52 -170h-68l52 170h-164l-52 -170h-68l52 170h-112v70h133l51 168h-114v80h138l55 182h71l-56 -182h162l55 182h71l-56 -182h100v-80h-125l-51 -168h106zM282 240h163l51 168h-163z" />
    <glyph glyph-name="dollar" unicode="$" horiz-adv-x="550" 
d="M233 710h72v-62q44 -4 77.5 -18.5t56.5 -29.5v-84q-25 19 -66.5 36t-84.5 17q-27 0 -56.5 -10t-49.5 -30.5t-20 -53.5q0 -37 26 -56.5t64 -35.5l93 -38q64 -26 95.5 -61.5t31.5 -93.5q0 -43 -22.5 -78t-60 -57.5t-84.5 -30.5v-84h-72v83q-43 5 -80 21.5t-65 35.5v85
q35 -25 81.5 -44.5t104.5 -19.5q46 0 80 23t34 63q0 23 -14 39.5t-34 28.5t-39 19l-111 46q-66 28 -89.5 67.5t-23.5 90.5q0 41 21 75.5t56 58.5t79 32v66z" />
    <glyph glyph-name="percent" unicode="%" horiz-adv-x="824" 
d="M588 690l56 -27l-411 -683l-53 27zM192 685q45 0 79.5 -20.5t53.5 -55.5t19 -77t-19 -77t-53.5 -55.5t-79.5 -20.5t-79.5 20.5t-53.5 55.5t-19 77t19 77t53.5 55.5t79.5 20.5zM193 617q-35 0 -59 -25t-24 -60t24 -60.5t59 -25.5t58.5 25.5t23.5 60.5t-23.5 60t-58.5 25z
M632 291q45 0 79.5 -20.5t53.5 -55.5t19 -77t-19 -77t-53.5 -55.5t-79.5 -20.5t-79.5 20.5t-53.5 55.5t-19 77t19 77t53.5 55.5t79.5 20.5zM633 223q-35 0 -59 -25t-24 -60t24 -60.5t59 -25.5t58.5 25.5t23.5 60.5t-23.5 60t-58.5 25z" />
    <glyph glyph-name="ampersand" unicode="&#x26;" horiz-adv-x="709" 
d="M316 685q45 0 87.5 -19t70 -55t27.5 -89q0 -40 -17 -70t-45 -53.5t-62 -44.5q-13 -8 -29 -17q28 -32 56.5 -63.5t57.5 -63.5q19 29 39 62.5t45 77.5h98q-33 -58 -64 -109t-60 -93q33 -36 67.5 -72.5t71.5 -75.5h-111q-39 39 -79 81q-38 -43 -86 -69.5t-113 -26.5
q-66 0 -115.5 24t-77 65.5t-27.5 95.5q0 49 23.5 83.5t61.5 59.5t80 45q-33 34 -57.5 71t-24.5 87q0 57 26.5 94.5t68.5 56t88 18.5zM232 512q0 -31 18 -59t44 -56q45 23 76.5 52t31.5 73q0 26 -13.5 42.5t-33.5 24.5t-39 8q-30 0 -57 -19t-27 -66zM149 170q0 -46 35 -71.5
t89 -25.5q53 0 83.5 20t54.5 49q-34 38 -68.5 76.5t-70.5 79.5q-50 -25 -86.5 -54t-36.5 -74z" />
    <glyph glyph-name="quotesingle" unicode="'" horiz-adv-x="242" 
d="M162 670v-254h-82v254h82z" />
    <glyph glyph-name="parenleft" unicode="(" horiz-adv-x="363" 
d="M323 690q-30 -34 -57.5 -86t-48.5 -114t-33 -125.5t-12 -119.5q0 -60 12 -124t33 -124.5t48.5 -111.5t57.5 -85h-91q-41 43 -78 112.5t-60.5 155.5t-23.5 177q0 65 13.5 130t36.5 125t52 109t60 81h91z" />
    <glyph glyph-name="parenright" unicode=")" horiz-adv-x="393" 
d="M70 690q30 -34 57.5 -86t48.5 -114t33 -125.5t12 -119.5q0 -60 -12 -124t-33 -124.5t-48.5 -111.5t-57.5 -85h91q41 43 78 112.5t60.5 155.5t23.5 177q0 65 -13.5 130t-36.5 125t-52 109t-60 81h-91z" />
    <glyph glyph-name="asterisk" unicode="*" horiz-adv-x="494" 
d="M283 705l-6 -122l104 44l23 -68l-108 -31l76 -95l-58 -42l-67 103l-67 -103l-58 42l76 95l-108 31l23 68l104 -44l-6 122h72z" />
    <glyph glyph-name="plus" unicode="+" horiz-adv-x="550" 
d="M470 358v-90h-150v-151h-90v151h-150v90h150v150h90v-150h150z" />
    <glyph glyph-name="comma" unicode="," horiz-adv-x="282" 
d="M120 118l82 -28l-90 -267l-62 16z" />
    <glyph glyph-name="hyphen" unicode="-" horiz-adv-x="421" 
d="M361 298v-90h-301v90h301z" />
    <glyph glyph-name="period" unicode="." horiz-adv-x="300" 
d="M150 122q29 0 49.5 -20.5t20.5 -49.5q0 -28 -20.5 -49t-49.5 -21t-49.5 21t-20.5 49q0 29 20.5 49.5t49.5 20.5z" />
    <glyph glyph-name="slash" unicode="/" horiz-adv-x="414" 
d="M374 705l-266 -905h-68l263 905h71z" />
    <glyph glyph-name="zero" unicode="0" horiz-adv-x="550" 
d="M278 685q65 0 112.5 -30t78.5 -80.5t46.5 -112.5t15.5 -127q0 -64 -15.5 -126.5t-46.5 -113t-78.5 -80.5t-112.5 -30q-64 0 -112 30t-79 80.5t-46.5 113t-15.5 126.5q0 65 15.5 127t46.5 112.5t79 80.5t112 30zM278 597q-41 0 -72.5 -22.5t-52.5 -60t-32 -84t-11 -95.5
t11 -95.5t32 -84t52.5 -60t72.5 -22.5t72.5 22.5t52.5 60t32 84t11 95.5t-11 95.5t-32 84t-52.5 60t-72.5 22.5z" />
    <glyph glyph-name="one" unicode="1" horiz-adv-x="550" 
d="M471 80v-80h-363v80h133v436q-30 -26 -62 -36t-64 -16v86q58 15 101 49t71 71h44v-590h140z" />
    <glyph glyph-name="two" unicode="2" horiz-adv-x="550" 
d="M256 685q66 0 116 -24t78 -68.5t28 -105.5q0 -65 -33 -123.5t-93.5 -124.5t-143.5 -156h275v-83h-420v36q102 114 176 193.5t114 136.5t40 101q0 65 -42.5 97.5t-102.5 32.5q-49 0 -92.5 -24.5t-72.5 -50.5v94q26 24 71 46.5t102 22.5z" />
    <glyph glyph-name="three" unicode="3" horiz-adv-x="550" 
d="M246 685q66 0 117.5 -25t81 -68.5t29.5 -99.5q0 -45 -22.5 -76t-53.5 -49t-57 -25q26 -7 57 -27.5t53.5 -53.5t22.5 -78q0 -56 -28.5 -101t-79.5 -71t-117 -26q-59 0 -105.5 20t-72.5 44v99q23 -16 48 -35t57 -33t75 -14q60 0 99 32t39 90q0 33 -20.5 59t-53 41t-69.5 15
h-60v80h60q63 0 103 27.5t40 76.5q0 35 -20 61t-53 41t-73 15q-52 0 -87.5 -22.5t-64.5 -51.5v99q26 24 67.5 40t87.5 16z" />
    <glyph glyph-name="four" unicode="4" horiz-adv-x="550" 
d="M423 670v-446h105v-76h-105v-148h-90v148h-306v33q57 61 121.5 136t127 163.5t114.5 189.5h33zM333 450q-40 -62 -81 -119.5t-85 -106.5h166v226z" />
    <glyph glyph-name="five" unicode="5" horiz-adv-x="550" 
d="M463 670v-83h-264v-179q15 6 34.5 10t50.5 4q56 0 102.5 -27t75 -73t28.5 -105q0 -68 -32 -120.5t-88 -82t-127 -29.5q-36 0 -71 10.5t-63 26.5t-46 32v99q19 -15 46 -35.5t61 -36t73 -15.5q45 0 82 18t58.5 50t21.5 75q0 41 -23 70.5t-61 46t-83 16.5q-38 0 -69.5 -9.5
t-59.5 -20.5v358h354z" />
    <glyph glyph-name="six" unicode="6" horiz-adv-x="550" 
d="M441 670q-31 -29 -73 -67t-85 -81t-77 -86t-49 -82q25 31 63 56t85 25q66 0 113 -29.5t72.5 -77t25.5 -101.5q0 -43 -15.5 -86t-45 -78.5t-71.5 -56.5t-95 -21q-67 0 -121.5 31t-87 89t-32.5 138q0 54 20 106.5t51.5 101t67.5 90.5t68 75t53 54h133zM284 354
q-37 0 -72 -17.5t-57 -48t-22 -71.5q0 -45 22 -79t57 -53t72 -19q38 0 71.5 19t54.5 53t21 79q0 41 -21 71.5t-54.5 48t-71.5 17.5z" />
    <glyph glyph-name="seven" unicode="7" horiz-adv-x="550" 
d="M514 670v-42q-63 -90 -111.5 -168t-82 -152t-51 -149t-17.5 -159h-103q0 87 22 163.5t59.5 147t83.5 138.5t93 138h-356v83h463z" />
    <glyph glyph-name="eight" unicode="8" horiz-adv-x="550" 
d="M275 685q56 0 101.5 -22.5t72.5 -62.5t27 -93q0 -58 -28 -94.5t-69 -59.5q47 -22 82 -65.5t35 -100.5q0 -56 -27.5 -102t-77.5 -73t-116 -27t-115.5 27t-77.5 73t-28 102q0 57 35 100.5t82 65.5q-40 23 -68.5 59.5t-28.5 94.5q0 53 27 93t72.5 62.5t101.5 22.5zM275 604
q-28 0 -55 -14t-44 -38t-17 -55t17 -53.5t44 -35t55 -12.5q29 0 55.5 12.5t43.5 35t17 53.5t-17 55t-43.5 38t-55.5 14zM275 312q-33 0 -64.5 -16t-51.5 -43t-20 -61q0 -33 18 -62t49 -46.5t69 -17.5q39 0 69.5 17.5t48.5 46.5t18 62q0 34 -20 61t-51 43t-65 16z" />
    <glyph glyph-name="nine" unicode="9" horiz-adv-x="550" 
d="M121 0q31 29 73 67t85 81t77 86t49 82q-25 -31 -63 -56t-85 -25q-66 0 -113 29.5t-72.5 77t-25.5 101.5q0 43 15.5 86t45 78.5t71.5 56.5t95 21q67 0 121.5 -31t87 -89t32.5 -138q0 -54 -20 -106.5t-51.5 -101t-67.5 -90.5t-68 -75t-53 -54h-133zM278 316q37 0 72 17.5
t57 48t22 71.5q0 45 -22 79t-57 53t-72 19q-38 0 -71.5 -19t-54.5 -53t-21 -79q0 -41 21 -71.5t54.5 -48t71.5 -17.5z" />
    <glyph glyph-name="colon" unicode=":" horiz-adv-x="300" 
d="M150 522q29 0 49.5 -20.5t20.5 -49.5q0 -28 -20.5 -49t-49.5 -21t-49.5 21t-20.5 49q0 29 20.5 49.5t49.5 20.5zM150 122q29 0 49.5 -20.5t20.5 -49.5q0 -28 -20.5 -49t-49.5 -21t-49.5 21t-20.5 49q0 29 20.5 49.5t49.5 20.5z" />
    <glyph glyph-name="semicolon" unicode=";" horiz-adv-x="352" 
d="M191 522q29 0 49.5 -20.5t20.5 -49.5q0 -28 -20.5 -49t-49.5 -21t-49.5 21t-20.5 49q0 29 20.5 49.5t49.5 20.5zM150 118l82 -28l-90 -267l-62 16z" />
    <glyph glyph-name="less" unicode="&#x3c;" horiz-adv-x="500" 
d="M460 592v-98l-306 -191l306 -205v-98l-400 276v51z" />
    <glyph glyph-name="equal" unicode="=" horiz-adv-x="551" 
d="M471 448v-90h-391v90h391zM471 263v-90h-391v90h391z" />
    <glyph glyph-name="greater" unicode="&#x3e;" horiz-adv-x="500" 
d="M40 592v-98l306 -191l-306 -205v-98l400 276v51z" />
    <glyph glyph-name="question" unicode="?" horiz-adv-x="560" 
d="M265 685q60 0 109 -25t77.5 -69t28.5 -101q0 -37 -18.5 -66.5t-46 -53.5t-54.5 -45t-45 -42t-17 -44l1 -21h-97v40q0 22 17.5 42.5t43.5 41t52.5 42t44 44.5t17.5 49q0 49 -31.5 81t-91.5 32t-99.5 -23.5t-75.5 -69.5v109q27 33 77 56t108 23zM256 122q29 0 49.5 -20.5
t20.5 -49.5q0 -28 -20.5 -49t-49.5 -21t-49.5 21t-20.5 49q0 29 20.5 49.5t49.5 20.5z" />
    <glyph glyph-name="at" unicode="@" horiz-adv-x="824" 
d="M412 612q73 0 138 -23t115.5 -66.5t79.5 -106.5t29 -143q0 -59 -26.5 -108.5t-71 -79t-98.5 -29.5q-43 0 -71 20t-36 53q-54 -73 -136 -73q-47 0 -80.5 25.5t-48 68.5t-5.5 93q16 90 74.5 143t139.5 53q32 0 60 -14.5t47 -41.5l9 49h72l-48 -208q-11 -48 -8 -76t45 -28
q24 0 46.5 17t37.5 51.5t15 84.5q0 84 -37 142.5t-100 89.5t-142 31q-78 0 -141 -38.5t-100.5 -104.5t-37.5 -150q0 -83 35 -145t98 -96t146 -34q49 0 87 7.5t73.5 22.5t75.5 37l36 -61q-68 -37 -133 -59t-139 -22q-102 0 -184 43t-130 122t-48 185q0 80 29 147.5t79.5 117
t115.5 77t138 27.5zM414 365q-58 0 -91.5 -34.5t-44.5 -87.5q-10 -52 10 -85t68 -33q50 0 86 27t49 85l19 82q-40 46 -96 46z" />
    <glyph glyph-name="A" unicode="A" horiz-adv-x="691" 
d="M368 670l313 -670h-108l-70 160h-314l-71 -160h-108l313 670h45zM347 518l-121 -273h240z" />
    <glyph glyph-name="B" unicode="B" horiz-adv-x="685" 
d="M346 686q74 0 128.5 -24.5t84.5 -66.5t30 -97q0 -49 -28 -89.5t-70 -60.5q30 -6 59 -25t48.5 -52t19.5 -82q0 -56 -32 -101t-91.5 -71.5t-140.5 -26.5q-62 0 -129.5 7.5t-114.5 17.5v646q52 12 113.5 18.5t122.5 6.5zM340 601q-42 0 -75.5 -3t-64.5 -9v-210h157
q68 0 104 34.5t36 80.5q0 36 -22 59.5t-57.5 35.5t-77.5 12zM200 87q36 -7 80 -9.5t72 -2.5q75 0 124.5 31t49.5 83q0 55 -48.5 82.5t-118.5 27.5h-159v-212z" />
    <glyph glyph-name="C" unicode="C" horiz-adv-x="674" 
d="M403 685q73 0 119.5 -20t81.5 -52v-99q-22 16 -49.5 35t-64 33.5t-87.5 14.5q-75 0 -134 -34t-93 -93.5t-34 -134.5t34 -134t93 -93.5t134 -34.5q77 0 131.5 25.5t89.5 52.5v-90q-35 -31 -91.5 -53.5t-129.5 -22.5q-76 0 -140 27.5t-112 75.5t-74.5 111.5t-26.5 135.5
t26.5 135.5t74.5 111.5t112 75.5t140 27.5z" />
    <glyph glyph-name="D" unicode="D" horiz-adv-x="759" 
d="M356 686q113 0 191.5 -46t120 -124.5t41.5 -177.5t-41.5 -177.5t-120 -124.5t-191.5 -46q-69 0 -127 7t-119 18v646q61 11 119 18t127 7zM356 601q-36 0 -77 -2.5t-79 -7.5v-506q38 -4 79 -7t77 -3q81 0 139.5 34.5t90 94t31.5 134.5t-31.5 134.5t-90 94t-139.5 34.5z
" />
    <glyph glyph-name="E" unicode="E" horiz-adv-x="649" 
d="M526 386v-85h-326v-216h369v-85h-459v670h459v-85h-369v-199h326z" />
    <glyph glyph-name="F" unicode="F" horiz-adv-x="635" 
d="M488 361v-85h-288v-276h-90v670h438v-85h-348v-224h288z" />
    <glyph glyph-name="G" unicode="G" horiz-adv-x="701" 
d="M366 366h295v-275q-24 -26 -62 -50.5t-87.5 -40t-108.5 -15.5q-76 0 -140 27.5t-112 75.5t-74.5 111.5t-26.5 135.5t26.5 135.5t74.5 111.5t112 75.5t140 27.5q73 0 119.5 -20t81.5 -52v-99q-22 16 -49.5 35t-64 33.5t-87.5 14.5q-75 0 -134 -34t-93 -93.5t-34 -134.5
t34 -134t93 -93.5t134 -34.5q51 0 82 10.5t49 24t29 22.5l1 156h-198v80z" />
    <glyph glyph-name="H" unicode="H" horiz-adv-x="782" 
d="M200 670v-282h382v282h90v-670h-90v303h-382v-303h-90v670h90z" />
    <glyph glyph-name="I" unicode="I" horiz-adv-x="536" 
d="M426 85v-85h-316v85h113v500h-113v85h316v-85h-113v-500h113z" />
    <glyph glyph-name="J" unicode="J" horiz-adv-x="315" 
d="M205 672v-638q0 -85 -28 -141t-76.5 -90.5t-111.5 -57.5l-44 87q170 61 170 184v656h90z" />
    <glyph glyph-name="K" unicode="K" horiz-adv-x="672" 
d="M200 670v-352l306 352h126l-281 -309l311 -361h-125l-251 289l-86 -94v-195h-90v670h90z" />
    <glyph glyph-name="L" unicode="L" horiz-adv-x="636" 
d="M200 670v-585h369v-85h-459v670h90z" />
    <glyph glyph-name="M" unicode="M" horiz-adv-x="843" 
d="M733 670v-670h-90v485l-207 -221h-24l-212 221v-485h-90v670h28l286 -307l281 307h28z" />
    <glyph glyph-name="N" unicode="N" horiz-adv-x="779" 
d="M669 670v-670h-34l-435 479v-479h-90v670h34l435 -485v485h90z" />
    <glyph glyph-name="O" unicode="O" horiz-adv-x="806" 
d="M403 685q76 0 140 -27.5t112 -75.5t74.5 -111.5t26.5 -135.5t-26.5 -135.5t-74.5 -111.5t-112 -75.5t-140 -27.5t-140 27.5t-112 75.5t-74.5 111.5t-26.5 135.5t26.5 135.5t74.5 111.5t112 75.5t140 27.5zM403 597q-75 0 -134 -34t-93 -93.5t-34 -134.5t34 -134t93 -93.5
t134 -34.5t134 34.5t93 93.5t34 134t-34 134.5t-93 93.5t-134 34z" />
    <glyph glyph-name="P" unicode="P" horiz-adv-x="660" 
d="M377 670q58 0 111 -26.5t87.5 -76t34.5 -118.5q0 -59 -33 -109t-89.5 -80.5t-125.5 -30.5q-51 0 -93.5 10.5t-68.5 22.5v-262h-90v670h267zM200 585v-241q27 -11 70.5 -20.5t88.5 -9.5q76 0 117.5 39.5t41.5 95.5q0 43 -23.5 73t-61.5 46.5t-81 16.5h-152z" />
    <glyph glyph-name="Q" unicode="Q" horiz-adv-x="831" 
d="M403 685q76 0 140 -27.5t112 -75.5t74.5 -111.5t26.5 -135.5q0 -79 -31.5 -147.5t-88 -117.5t-130.5 -71q69 -26 139 -44.5t119 -18.5v-90q-55 0 -119.5 18.5t-127 50.5t-114.5 70q-76 0 -140 27.5t-112 75.5t-74.5 111.5t-26.5 135.5t26.5 135.5t74.5 111.5t112 75.5
t140 27.5zM403 597q-75 0 -134 -34t-93 -93.5t-34 -134.5t34 -134t93 -93.5t134 -34.5t134 34.5t93 93.5t34 134t-34 134.5t-93 93.5t-134 34z" />
    <glyph glyph-name="R" unicode="R" horiz-adv-x="636" 
d="M367 670q58 0 111 -21.5t87.5 -66t34.5 -113.5q0 -62 -35.5 -105t-90 -64.5t-112.5 -21.5q-18 0 -48 2l312 -280h-138l-288 280v-280h-90v670h257zM200 585v-215q33 -9 72 -14t77 -5q76 0 117.5 32t41.5 86q0 56 -45.5 86t-110.5 30h-152z" />
    <glyph glyph-name="S" unicode="S" horiz-adv-x="523" 
d="M272 680q59 0 97.5 -17t67.5 -36v-93q-28 21 -68 39.5t-87 18.5q-30 0 -62.5 -10.5t-54.5 -33.5t-22 -59q0 -40 29 -61t70 -40l92 -42q69 -31 104 -69t35 -101q0 -55 -32 -96.5t-84 -65.5t-114 -24q-58 0 -107 20t-85 45v93q39 -27 89.5 -48.5t114.5 -21.5q50 0 88 25
t38 69q0 25 -15.5 43t-37.5 31t-43 22l-111 50q-72 32 -98 75t-26 99q0 53 30.5 95.5t81.5 67.5t110 25z" />
    <glyph glyph-name="T" unicode="T" horiz-adv-x="611" 
d="M582 670v-85h-231v-582h-90v582h-231v85h552z" />
    <glyph glyph-name="U" unicode="U" horiz-adv-x="752" 
d="M652 672v-407q0 -87 -36.5 -149.5t-98.5 -95.5t-141 -33q-78 0 -140.5 33t-99 95.5t-36.5 149.5v407h90v-404q0 -68 25.5 -110t68 -60.5t92.5 -18.5q50 1 92.5 19.5t68 60t25.5 109.5v404h90z" />
    <glyph glyph-name="V" unicode="V" horiz-adv-x="691" 
d="M681 670l-313 -670h-45l-313 670h108l226 -518l229 518h108z" />
    <glyph glyph-name="W" unicode="W" horiz-adv-x="944" 
d="M934 670l-235 -670h-51l-180 507l-182 -507h-51l-225 670h98l157 -498l177 498l58 -1l172 -497l164 498h98z" />
    <glyph glyph-name="X" unicode="X" horiz-adv-x="644" 
d="M634 670l-263 -345l263 -325h-120l-202 262l-192 -262h-110l251 335l-251 335h120l190 -273l194 273h120z" />
    <glyph glyph-name="Y" unicode="Y" horiz-adv-x="631" 
d="M621 670l-257 -395v-275h-97v262l-257 408h108l196 -316l199 316h108z" />
    <glyph glyph-name="Z" unicode="Z" horiz-adv-x="672" 
d="M605 670v-36l-404 -549h404v-85h-538v36l393 549h-370v85h515z" />
    <glyph glyph-name="bracketleft" unicode="[" horiz-adv-x="379" 
d="M339 690v-90h-162v-710h162v-90h-259v890h259z" />
    <glyph glyph-name="backslash" unicode="\" horiz-adv-x="364" 
d="M61 670l313 -870h-68l-316 870h71z" />
    <glyph glyph-name="bracketright" unicode="]" horiz-adv-x="379" 
d="M40 690v-90h162v-710h-162v-90h259v890h-259z" />
    <glyph glyph-name="asciicircum" unicode="^" horiz-adv-x="603" 
d="M322 670l221 -360h-88l-160 268l-147 -268h-88l211 360h51z" />
    <glyph glyph-name="underscore" unicode="_" horiz-adv-x="490" 
d="M490 -21v-90h-490v90h490z" />
    <glyph glyph-name="grave" unicode="`" horiz-adv-x="314" 
d="M19 720h114l110 -135h-82z" />
    <glyph glyph-name="a" unicode="a" 
d="M291 510q43 0 87.5 -20.5t76.5 -56.5v67h82v-500h-82v85q-26 -40 -70.5 -70t-101.5 -30q-64 0 -117 32.5t-84.5 90.5t-31.5 134q0 83 31.5 143t86.5 92.5t123 32.5zM306 430q-54 0 -92 -27t-58.5 -69.5t-20.5 -91.5q0 -48 20 -88.5t56.5 -64.5t84.5 -24q46 0 82 24
t57 66.5t20 95.5l-1 96q-31 39 -66.5 61t-81.5 22z" />
    <glyph glyph-name="b" unicode="b" 
d="M331 510q69 0 123.5 -32.5t86 -92.5t31.5 -143q0 -76 -31.5 -134t-84 -90.5t-117.5 -32.5q-57 0 -101.5 30t-70.5 70v-85h-82v720h82v-287q32 36 76.5 56.5t87.5 20.5zM316 429q-46 0 -81 -21.5t-67 -60.5l-1 -96q0 -53 20.5 -95t57 -66t81.5 -24q49 0 85 24t56 64t20 88
q0 49 -20.5 91.5t-58.5 69t-92 26.5z" />
    <glyph glyph-name="c" unicode="c" horiz-adv-x="511" 
d="M311 510q55 0 95 -17.5t55 -31.5v-83q-28 21 -64 36.5t-86 15.5q-53 0 -93 -25.5t-61.5 -67t-21.5 -90.5q0 -48 21.5 -89.5t61.5 -67t93 -25.5q50 0 86 15.5t64 36.5v-83q-15 -15 -55 -32t-95 -17q-76 0 -135 36t-92.5 95.5t-33.5 130.5t33.5 131t92.5 96t135 36z" />
    <glyph glyph-name="d" unicode="d" 
d="M537 720v-720h-82v85q-26 -40 -70.5 -70t-101.5 -30q-64 0 -117 32.5t-84.5 90.5t-31.5 134q0 83 31.5 143t86.5 92.5t123 32.5q43 0 87.5 -20.5t76.5 -56.5v287h82zM306 428q-54 0 -92 -26.5t-58.5 -68.5t-20.5 -91q0 -48 20 -88.5t56.5 -64.5t84.5 -24q46 0 82 24
t57 66.5t20 95.5l-1 96q-31 39 -66.5 60t-81.5 21z" />
    <glyph glyph-name="e" unicode="e" horiz-adv-x="571" 
d="M291 510q77 0 128 -32t76.5 -87t25.5 -124v-49h-384q6 -42 29 -77t60 -55.5t85 -20.5q54 0 101 27.5t79 60.5l-1 -89q-14 -17 -41.5 -35.5t-63 -31t-74.5 -12.5q-76 0 -135 36t-92.5 95.5t-33.5 130.5t31 131t85.5 96t124.5 36zM291 430q-62 0 -102 -41.5t-50 -100.5h301
q-5 49 -27.5 80t-54.5 46.5t-67 15.5z" />
    <glyph glyph-name="f" unicode="f" horiz-adv-x="368" 
d="M344 500v-77h-146v-423h-82v423h-79v77h79v64q0 59 23 96.5t59 56t73 18.5q51 0 83 -27v-72q-15 10 -36 16t-42 5q-37 -1 -57.5 -23.5t-20.5 -78.5v-55h146z" />
    <glyph glyph-name="g" unicode="g" 
d="M291 510q43 0 87.5 -20.5t76.5 -56.5v67h82v-490q0 -89 -36 -148t-96 -88t-131 -29q-46 0 -78.5 10.5t-55.5 26t-42 29.5v88q15 -11 39.5 -28.5t59 -31.5t77.5 -14q49 0 90 18t66 53t25 84v105q-26 -40 -70.5 -70t-101.5 -30q-64 0 -117 32.5t-84.5 90.5t-31.5 134
q0 83 31.5 143t86.5 92.5t123 32.5zM306 429q-54 0 -92 -26.5t-58.5 -69t-20.5 -91.5q0 -48 20 -88t56.5 -64t84.5 -24q46 0 82 24t57 66t20 95l-1 96q-31 39 -66.5 60.5t-81.5 21.5z" />
    <glyph glyph-name="h" unicode="h" horiz-adv-x="585" 
d="M330 510q51 0 93 -22.5t67 -68t25 -114.5v-305h-82l-1 297q0 65 -28.5 99t-87.5 34q-40 0 -79.5 -29.5t-69.5 -68.5v-332h-82v720h82v-299q16 20 41 40.5t56.5 34.5t65.5 14z" />
    <glyph glyph-name="i" unicode="i" horiz-adv-x="308" 
d="M165 740q29 0 48.5 -20.5t19.5 -47.5q0 -26 -19.5 -47t-48.5 -21t-48.5 21t-19.5 47q0 27 19.5 47.5t48.5 20.5zM216 500v-500h-82v423h-79v77h161z" />
    <glyph glyph-name="j" unicode="j" horiz-adv-x="289" 
d="M151 740q29 0 48.5 -20.5t19.5 -47.5q0 -26 -19.5 -47t-48.5 -21t-48.5 21t-19.5 47q0 27 19.5 47.5t48.5 20.5zM204 500v-498q0 -101 -46.5 -163t-125.5 -94l-37 74q66 32 96.5 71t30.5 100v433h-79v77h161z" />
    <glyph glyph-name="k" unicode="k" horiz-adv-x="545" 
d="M527 500l-232 -218l245 -282h-104l-198 228l-71 -66v-162h-82v720h82v-464l249 244h111z" />
    <glyph glyph-name="l" unicode="l" horiz-adv-x="252" 
d="M167 720v-720h-82v720h82z" />
    <glyph glyph-name="m" unicode="m" horiz-adv-x="927" 
d="M167 500v-64q24 27 61.5 50.5t88.5 23.5q54 0 101 -25.5t72 -76.5q35 42 76 72t96 30q51 0 95.5 -22.5t72 -68t27.5 -114.5v-305h-82l-1 297q0 65 -33.5 99t-92.5 34q-43 0 -75 -27t-61 -63v-340h-82l-1 297q0 65 -33.5 99t-92.5 34q-41 0 -74.5 -24t-61.5 -58v-348h-82
v500h82z" />
    <glyph glyph-name="n" unicode="n" horiz-adv-x="585" 
d="M167 500v-79q16 20 41 40.5t56.5 34.5t65.5 14q51 0 93 -22.5t67 -68t25 -114.5v-305h-82l-1 297q0 65 -28.5 99t-87.5 34q-40 0 -79.5 -29.5t-69.5 -68.5v-332h-82v500h82z" />
    <glyph glyph-name="o" unicode="o" 
d="M311 510q76 0 135 -36t92.5 -96t33.5 -131t-33.5 -130.5t-92.5 -95.5t-135 -36t-135 36t-92.5 95.5t-33.5 130.5t33.5 131t92.5 96t135 36zM311 430q-53 0 -93 -25.5t-61.5 -67t-21.5 -90.5q0 -48 21.5 -89.5t61.5 -67t93 -25.5q54 0 93.5 25.5t61 67t21.5 89.5
q0 49 -21.5 90.5t-61 67t-93.5 25.5z" />
    <glyph glyph-name="p" unicode="p" 
d="M339 510q65 0 117.5 -31.5t84 -88t31.5 -132.5q0 -82 -31.5 -143.5t-86 -95.5t-123.5 -34q-43 0 -87.5 23t-76.5 59v-307h-82v740h82v-85q26 40 70.5 67.5t101.5 27.5zM326 430q-45 0 -81.5 -23t-57 -63.5t-20.5 -94.5l1 -96q32 -39 67 -63.5t81 -24.5q54 0 92 28
t58.5 72.5t20.5 92.5q0 49 -20 87.5t-56 61.5t-85 23z" />
    <glyph glyph-name="q" unicode="q" 
d="M291 510q43 0 87.5 -20.5t76.5 -56.5v67h82v-740h-82v325q-26 -40 -70.5 -70t-101.5 -30q-64 0 -117 32.5t-84.5 90.5t-31.5 134q0 83 31.5 143t86.5 92.5t123 32.5zM306 429q-54 0 -92 -26.5t-58.5 -69t-20.5 -91.5q0 -48 20 -88t56.5 -64t84.5 -24q46 0 82 24t57 66
t20 95l-1 96q-31 39 -66.5 60.5t-81.5 21.5z" />
    <glyph glyph-name="r" unicode="r" horiz-adv-x="393" 
d="M167 500v-100q29 50 70 80t84 30q29 0 52 -10v-95q-32 19 -64 19q-51 0 -82.5 -36t-59.5 -86v-302h-82v500h82z" />
    <glyph glyph-name="s" unicode="s" horiz-adv-x="428" 
d="M234 510q44 0 82 -12.5t55 -25.5v-88q-21 16 -57 31t-74 15q-47 0 -70.5 -22t-23.5 -46q0 -19 13.5 -38.5t47.5 -31.5l84 -30q49 -17 73 -49t24 -75q0 -42 -23.5 -77t-65 -55.5t-95.5 -20.5q-29 0 -60.5 7.5t-56.5 18t-37 18.5v88q14 -10 39.5 -22.5t54.5 -21t54 -8.5
q47 0 74.5 21t27.5 52q0 24 -18.5 38t-53.5 27l-74 27q-58 22 -77 55.5t-19 76.5q0 64 48 106t128 42z" />
    <glyph glyph-name="t" unicode="t" horiz-adv-x="433" 
d="M223 644v-144h146v-77h-146v-293q0 -31 16 -49t49 -18q30 0 50 7.5t35 16.5v-67q-20 -16 -42.5 -25.5t-60.5 -9.5q-64 0 -96.5 38.5t-32.5 102.5v297h-96v24q49 22 82 72.5t58 124.5h38z" />
    <glyph glyph-name="u" unicode="u" horiz-adv-x="564" 
d="M494 500v-296q0 -66 -28 -114t-76 -74t-108 -26t-108 26t-76 74t-28 114v296h85v-296q0 -65 38.5 -99.5t88.5 -34.5t88.5 34.5t38.5 99.5v296h85z" />
    <glyph glyph-name="v" unicode="v" horiz-adv-x="541" 
d="M526 500l-235 -500h-51l-225 500h98l151 -368l164 368h98z" />
    <glyph glyph-name="w" unicode="w" horiz-adv-x="756" 
d="M741 500l-175 -500h-51l-137 353l-137 -353h-51l-175 500h98l111 -351l131 351h46l131 -351l111 351h98z" />
    <glyph glyph-name="x" unicode="x" horiz-adv-x="553" 
d="M535 500l-207 -240l210 -260h-106l-155 207l-156 -207h-106l210 260l-207 240h106l153 -180l152 180h106z" />
    <glyph glyph-name="y" unicode="y" horiz-adv-x="571" 
d="M113 500l175 -368l170 368h98l-368 -740h-95l143 270l-221 470h98z" />
    <glyph glyph-name="z" unicode="z" horiz-adv-x="549" 
d="M484 500v-27l-301 -396h311v-77h-439v27l291 396h-271v77h409z" />
    <glyph glyph-name="braceleft" unicode="{" horiz-adv-x="434" 
d="M394 690v-90h-44q-43 0 -64 -17t-27.5 -51.5t-6.5 -86.5v-105q0 -31 -18 -55.5t-47 -39.5q29 -15 47 -39t18 -56v-105q0 -52 6.5 -86.5t27.5 -51.5t64 -17h44v-90h-64q-52 0 -91.5 24.5t-61.5 66t-22 91.5v136q0 45 -14 63.5t-61 18.5v90q47 0 61 18.5t14 63.5v136
q0 51 22 92t61.5 65.5t91.5 24.5h64z" />
    <glyph glyph-name="bar" unicode="|" horiz-adv-x="230" 
d="M150 705v-905h-70v905h70z" />
    <glyph glyph-name="braceright" unicode="}" horiz-adv-x="434" 
d="M40 690v-90h44q43 0 64 -17t27.5 -51.5t6.5 -86.5v-105q0 -31 18 -55.5t47 -39.5q-29 -15 -47 -39t-18 -56v-105q0 -52 -6.5 -86.5t-27.5 -51.5t-64 -17h-44v-90h64q52 0 91.5 24.5t61.5 66t22 91.5v136q0 45 14 63.5t61 18.5v90q-47 0 -61 18.5t-14 63.5v136
q0 51 -22 92t-61.5 65.5t-91.5 24.5h-64z" />
    <glyph glyph-name="asciitilde" unicode="~" horiz-adv-x="524" 
d="M464 416q0 -52 -35.5 -88.5t-90.5 -36.5q-33 0 -54 9.5t-36 21.5t-29 21.5t-33 9.5q-21 0 -32.5 -16.5t-11.5 -39.5h-82q0 53 35.5 89t90.5 36q33 0 54 -9.5t36 -21.5t29 -21.5t33 -9.5q22 0 33 17t11 39h82z" />
    <glyph glyph-name="uni00A0" unicode="&#xa0;" horiz-adv-x="300" 
 />
    <glyph glyph-name="exclamdown" unicode="&#xa1;" horiz-adv-x="300" 
d="M191 -184v450h-82v-450h82zM150 364q29 0 49.5 20.5t20.5 49.5q0 28 -20.5 49t-49.5 21t-49.5 -21t-20.5 -49q0 -29 20.5 -49.5t49.5 -20.5z" />
    <glyph glyph-name="cent" unicode="&#xa2;" horiz-adv-x="511" 
d="M325 580v-70q50 -3 86 -19.5t50 -29.5v-83q-26 20 -58.5 34.5t-77.5 17.5v-365q45 3 77.5 17.5t58.5 34.5v-83q-14 -14 -50 -30t-86 -19v-65h-72v71q-60 13 -106 50.5t-71.5 90.5t-25.5 115t25.5 115.5t71.5 91t106 50.5v76h72zM135 247q0 -59 31.5 -107t86.5 -66v347
q-55 -19 -86.5 -67t-31.5 -107z" />
    <glyph glyph-name="sterling" unicode="&#xa3;" horiz-adv-x="513" 
d="M409 378v-80h-156v-35q0 -55 -16.5 -99.5t-44.5 -73.5h289v-90h-391v70q29 10 47 42t26 73t8 78v35h-79v80h79v81q0 74 29 123t76 73.5t100 24.5q41 0 74 -15t49 -32v-80q-22 20 -57 35t-71 14q-29 0 -56.5 -16.5t-44.5 -50t-17 -85.5v-72h156z" />
    <glyph glyph-name="currency" unicode="&#xa4;" horiz-adv-x="542" 
d="M271 436q55 0 104 -30l66 64l48 -51l-62 -62q16 -22 25.5 -48.5t9.5 -56.5t-9 -56.5t-25 -48.5l64 -62l-54 -51l-64 64q-48 -30 -103 -30t-103 30l-64 -64l-54 51l65 62q-17 22 -26 48.5t-9 56.5t9.5 56.5t25.5 48.5l-62 62l48 51l66 -64q49 30 104 30zM271 362
q-46 0 -80.5 -29t-34.5 -81t34.5 -81t80.5 -29q47 0 81 29t34 81t-34 81t-81 29z" />
    <glyph glyph-name="yen" unicode="&#xa5;" horiz-adv-x="631" 
d="M527 213v-70h-163v-143h-97v143h-162v70h162v49l-4 6h-158v70h114l-209 332h108l196 -316l199 316h108l-216 -332h122v-70h-163v-55h163z" />
    <glyph glyph-name="brokenbar" unicode="&#xa6;" horiz-adv-x="230" 
d="M150 705v-416h-70v416h70zM150 216v-416h-70v416h70z" />
    <glyph glyph-name="section" unicode="&#xa7;" horiz-adv-x="523" 
d="M473 -64q0 -54 -32 -96t-84 -66t-114 -24q-58 0 -107 20t-85 45v93q39 -27 89.5 -48.5t114.5 -21.5q50 0 88 25t38 69q0 25 -15.5 43t-37.5 31t-43 22l-111 50q-72 32 -98 75t-26 99q0 33 12.5 62.5t34.5 53.5q-26 26 -36.5 56.5t-10.5 67.5q0 53 30.5 95.5t81.5 67.5
t110 25t97.5 -17t67.5 -36v-93q-28 21 -68 39.5t-87 18.5q-30 0 -62.5 -10.5t-54.5 -33.5t-22 -59q0 -40 29 -61t70 -40l92 -42q69 -31 104 -69t35 -101q0 -36 -14.5 -66.5t-39.5 -54.5q27 -22 40.5 -51t13.5 -68zM334 106l8 -4q18 12 28.5 29.5t10.5 40.5q0 25 -15.5 43
t-37.5 31t-43 22l-109 49q-15 -12 -24 -29t-9 -39q0 -40 29 -61t70 -40z" />
    <glyph glyph-name="dieresis" unicode="&#xa8;" horiz-adv-x="496" 
d="M353 719q26 0 44.5 -18.5t18.5 -44.5q0 -25 -18.5 -44t-44.5 -19t-44.5 19t-18.5 44q0 26 18.5 44.5t44.5 18.5zM143 719q26 0 44.5 -18.5t18.5 -44.5q0 -25 -18.5 -44t-44.5 -19t-44.5 19t-18.5 44q0 26 18.5 44.5t44.5 18.5z" />
    <glyph glyph-name="copyright" unicode="&#xa9;" horiz-adv-x="884" 
d="M442 723q84 0 155.5 -30.5t124.5 -84t82.5 -123.5t29.5 -150t-29.5 -150t-82.5 -123.5t-124.5 -84t-155.5 -30.5t-155.5 30.5t-124.5 84t-82.5 123.5t-29.5 150t29.5 150t82.5 123.5t124.5 84t155.5 30.5zM442 649q-92 0 -162 -40t-108.5 -110.5t-38.5 -163.5
t38.5 -163.5t108.5 -110.5t162 -40q93 0 162.5 40t108 110.5t38.5 163.5t-38.5 163.5t-108 110.5t-162.5 40zM462 552q44 0 76.5 -14t44.5 -26v-67q-23 17 -52 29.5t-69 12.5q-44 0 -76 -20.5t-49.5 -54.5t-17.5 -73q0 -40 17.5 -73.5t49.5 -54t76 -20.5q40 0 69 12.5
t52 29.5v-67q-12 -13 -44.5 -26.5t-76.5 -13.5q-62 0 -110 29t-75 77.5t-27 106.5q0 57 27 105.5t75 78t110 29.5z" />
    <glyph glyph-name="ordfeminine" unicode="&#xaa;" horiz-adv-x="391" 
d="M194 676q55 0 97 -45v39h60v-297h-60v50q-15 -23 -41.5 -41t-60.5 -18q-66 0 -107.5 42.5t-41.5 110.5q0 74 43.5 116.5t110.5 42.5zM202 618q-47 0 -74 -29t-27 -72t26 -69.5t69 -26.5q41 0 68.5 27t26.5 74v58q-19 23 -40 30.5t-49 7.5z" />
    <glyph glyph-name="guillemotleft" unicode="&#xab;" horiz-adv-x="655" 
d="M315 32l-235 195v38l235 203v-105l-140 -117l140 -109v-105zM555 32l-235 195v38l235 203v-105l-140 -117l140 -109v-105z" />
    <glyph glyph-name="logicalnot" unicode="&#xac;" horiz-adv-x="600" 
d="M471 358v-228h-87v138h-304v90h391z" />
    <glyph glyph-name="uni00AD" unicode="&#xad;" horiz-adv-x="421" 
d="M361 298v-90h-301v90h301z" />
    <glyph glyph-name="registered" unicode="&#xae;" horiz-adv-x="884" 
d="M442 723q84 0 155.5 -30.5t124.5 -84t82.5 -123.5t29.5 -150t-29.5 -150t-82.5 -123.5t-124.5 -84t-155.5 -30.5t-155.5 30.5t-124.5 84t-82.5 123.5t-29.5 150t29.5 150t82.5 123.5t124.5 84t155.5 30.5zM442 649q-92 0 -162 -40t-108.5 -110.5t-38.5 -163.5
t38.5 -163.5t108.5 -110.5t162 -40q93 0 162.5 40t108 110.5t38.5 163.5t-38.5 163.5t-108 110.5t-162.5 40zM471 533q34 0 65.5 -12.5t52 -39t20.5 -67.5q0 -37 -21 -62t-53.5 -38t-66.5 -13q-11 0 -29 1l185 -166h-82l-170 166v-166h-54v397h153zM372 483v-128
q41 -11 88 -11q45 0 69.5 19t24.5 51q0 33 -27 51t-65 18h-90z" />
    <glyph glyph-name="macron" unicode="&#xaf;" horiz-adv-x="530" 
d="M440 718v-80h-350v80h350z" />
    <glyph glyph-name="degree" unicode="&#xb0;" horiz-adv-x="443" 
d="M222 685q50 0 88.5 -23.5t60.5 -62.5t22 -86t-22 -86.5t-60.5 -63t-88.5 -23.5t-89 23.5t-61 63t-22 86.5t22 86t61 62.5t89 23.5zM222 608q-40 0 -67 -28.5t-27 -66.5q0 -40 27 -68.5t67 -28.5q39 0 66 28.5t27 68.5q0 38 -27 66.5t-66 28.5z" />
    <glyph glyph-name="plusminus" unicode="&#xb1;" horiz-adv-x="531" 
d="M310 498v-120h140v-90h-140v-121h-90v121h-140v90h140v120h90zM451 90v-90h-371v90h371z" />
    <glyph glyph-name="uni00B2" unicode="&#xb2;" horiz-adv-x="278" 
d="M137 679q41 0 70 -23.5t29 -64.5q0 -29 -10 -50.5t-31 -46t-55 -64.5h98v-57h-198v26q68 77 102 116t34 64q0 41 -53 41q-22 0 -41.5 -11t-32.5 -23v62q12 11 33 21t55 10z" />
    <glyph glyph-name="uni00B3" unicode="&#xb3;" horiz-adv-x="262" 
d="M119 679q44 0 71.5 -24t27.5 -62q0 -31 -19.5 -47.5t-36.5 -21.5q17 -4 38.5 -22.5t21.5 -49.5q0 -37 -28.5 -63t-73.5 -26q-26 0 -47 9t-33 19v58q12 -9 30.5 -22t41.5 -13q22 0 34.5 8.5t12.5 29.5t-16 32t-36 11h-23v50h26q22 0 36 9.5t14 26.5q0 18 -15 29t-36 11
q-18 0 -34 -7.5t-26 -17.5v57q12 11 30.5 18.5t39.5 7.5z" />
    <glyph glyph-name="acute" unicode="&#xb4;" horiz-adv-x="314" 
d="M294 720l-142 -135h-82l110 135h114z" />
    <glyph glyph-name="uni00B5" unicode="&#xb5;" horiz-adv-x="564" 
d="M494 500v-500h-82v72q-19 -39 -55 -60.5t-80 -21.5q-82 0 -125 62v-292h-82v740h85v-296q0 -65 38.5 -99.5t88.5 -34.5t88.5 34.5t38.5 99.5v296h85zM123 152l-1 2l1 -3v1z" />
    <glyph glyph-name="paragraph" unicode="&#xb6;" horiz-adv-x="663" 
d="M553 -210h-52v824h-120v-824h-55v502h-50q-56 0 -108 19t-85 61t-33 109q0 69 33 110.5t85 60t108 18.5h277v-880z" />
    <glyph glyph-name="periodcentered" unicode="&#xb7;" horiz-adv-x="300" 
d="M150 403q29 0 49.5 -20.5t20.5 -49.5q0 -28 -20.5 -49t-49.5 -21t-49.5 21t-20.5 49q0 29 20.5 49.5t49.5 20.5z" />
    <glyph glyph-name="cedilla" unicode="&#xb8;" horiz-adv-x="353" 
d="M183 2l-6 -72q41 5 68.5 -17.5t27.5 -59.5q0 -40 -29 -66.5t-81 -26.5q-15 0 -38.5 6t-39.5 19l7 55q16 -8 34 -14.5t40 -6.5q17 0 28 9t11 22q0 29 -39 29q-7 0 -16 -2t-19 -7l-16 12l14 120h54z" />
    <glyph glyph-name="uni00B9" unicode="&#xb9;" horiz-adv-x="271" 
d="M231 428v-55h-191v55h69v151q-13 -12 -28.5 -16.5t-37.5 -6.5v61q33 7 53.5 22t32.5 31h40v-242h62z" />
    <glyph glyph-name="ordmasculine" unicode="&#xba;" horiz-adv-x="390" 
d="M195 676q45 0 80 -21.5t55 -57t20 -77.5t-20 -77.5t-55 -56.5t-80 -21t-80 21t-55 56.5t-20 77.5t20 77.5t55 57t80 21.5zM195 619q-42 0 -68.5 -27.5t-26.5 -71.5q0 -43 26.5 -70.5t68.5 -27.5q41 0 67.5 27.5t26.5 70.5q0 44 -26.5 71.5t-67.5 27.5z" />
    <glyph glyph-name="guillemotright" unicode="&#xbb;" horiz-adv-x="655" 
d="M340 468l235 -195v-38l-235 -203v105l140 117l-140 109v105zM100 468l235 -195v-38l-235 -203v105l140 117l-140 109v105z" />
    <glyph glyph-name="onequarter" unicode="&#xbc;" horiz-adv-x="666" 
d="M231 428v-55h-191v55h69v151q-13 -12 -28.5 -16.5t-37.5 -6.5v61q33 7 53.5 22t32.5 31h40v-242h62zM644 670l-525 -670h-78l522 670h81zM550 297v-178h36v-53h-36v-66h-60v66h-136v14q38 41 82.5 95.5t78.5 121.5h35zM490 189q-9 -13 -15.5 -22.5t-15 -20t-23.5 -27.5
h54v70z" />
    <glyph glyph-name="onehalf" unicode="&#xbd;" horiz-adv-x="703" 
d="M260 428v-55h-191v55h69v151q-13 -12 -28.5 -16.5t-37.5 -6.5v61q33 7 53.5 22t32.5 31h40v-242h62zM653 670l-525 -670h-78l522 670h81zM547 306q41 0 70 -23.5t29 -64.5q0 -29 -10 -50.5t-31 -46t-55 -64.5h98v-57h-198v26q68 77 102 116t34 64q0 41 -53 41
q-22 0 -41.5 -11t-32.5 -23v62q12 11 33 21t55 10z" />
    <glyph glyph-name="threequarters" unicode="&#xbe;" horiz-adv-x="704" 
d="M129 679q44 0 71.5 -24t27.5 -62q0 -31 -19.5 -47.5t-36.5 -21.5q17 -4 38.5 -22.5t21.5 -49.5q0 -37 -28.5 -63t-73.5 -26q-26 0 -47 9t-33 19v58q12 -9 30.5 -22t41.5 -13q22 0 34.5 8.5t12.5 29.5t-16 32t-36 11h-23v50h26q22 0 36 9.5t14 26.5q0 18 -15 29t-36 11
q-18 0 -34 -7.5t-26 -17.5v57q12 11 30.5 18.5t39.5 7.5zM654 670l-525 -670h-78l522 670h81zM560 297v-178h36v-53h-36v-66h-60v66h-136v14q38 41 82.5 95.5t78.5 121.5h35zM500 189q-9 -13 -15.5 -22.5t-15 -20t-23.5 -27.5h54v70z" />
    <glyph glyph-name="questiondown" unicode="&#xbf;" horiz-adv-x="560" 
d="M295 -199q-60 0 -109 25t-77.5 69t-28.5 101q0 37 18.5 66.5t46 53.5t54.5 45t45 42t17 44l-1 21h97v-40q0 -22 -17.5 -42.5t-43.5 -41t-52.5 -42t-44 -44.5t-17.5 -49q0 -49 31.5 -81t91.5 -32t99.5 23.5t75.5 69.5v-109q-27 -33 -77 -56t-108 -23zM304 364
q-29 0 -49.5 20.5t-20.5 49.5q0 28 20.5 49t49.5 21t49.5 -21t20.5 -49q0 -29 -20.5 -49.5t-49.5 -20.5z" />
    <glyph glyph-name="Agrave" unicode="&#xc0;" horiz-adv-x="691" 
d="M368 670l313 -670h-108l-70 160h-314l-71 -160h-108l313 670h45zM347 518l-121 -273h240zM167 890h114l110 -135h-82z" />
    <glyph glyph-name="Aacute" unicode="&#xc1;" horiz-adv-x="691" 
d="M368 670l313 -670h-108l-70 160h-314l-71 -160h-108l313 670h45zM347 518l-121 -273h240zM518 890l-142 -135h-82l110 135h114z" />
    <glyph glyph-name="Acircumflex" unicode="&#xc2;" horiz-adv-x="691" 
d="M368 670l313 -670h-108l-70 160h-314l-71 -160h-108l313 670h45zM347 518l-121 -273h240zM368 890l140 -139h-82l-80 78l-80 -78h-82l140 139h44z" />
    <glyph glyph-name="Atilde" unicode="&#xc3;" horiz-adv-x="691" 
d="M368 670l313 -670h-108l-70 160h-314l-71 -160h-108l313 670h45zM347 518l-121 -273h240zM520 874q0 -43 -29.5 -73t-74.5 -30q-27 0 -44.5 7.5t-30 18t-24 18t-27.5 7.5q-17 0 -26.5 -13.5t-9.5 -32.5h-68q0 44 29.5 73.5t74.5 29.5q27 0 44.5 -7.5t30 -18t24 -18
t27.5 -7.5q18 0 27 13.5t9 32.5h68z" />
    <glyph glyph-name="Adieresis" unicode="&#xc4;" horiz-adv-x="691" 
d="M368 670l313 -670h-108l-70 160h-314l-71 -160h-108l313 670h45zM347 518l-121 -273h240zM451 889q26 0 44.5 -18.5t18.5 -44.5q0 -25 -18.5 -44t-44.5 -19t-44.5 19t-18.5 44q0 26 18.5 44.5t44.5 18.5zM241 889q26 0 44.5 -18.5t18.5 -44.5q0 -25 -18.5 -44t-44.5 -19
t-44.5 19t-18.5 44q0 26 18.5 44.5t44.5 18.5z" />
    <glyph glyph-name="Aring" unicode="&#xc5;" horiz-adv-x="691" 
d="M368 670l313 -670h-108l-70 160h-314l-71 -160h-108l313 670h45zM347 518l-121 -273h240zM346 895q36 0 59 -24.5t23 -58.5t-23 -58.5t-59 -24.5t-59.5 24.5t-23.5 58.5t23.5 58.5t59.5 24.5zM346 854q-17 0 -29 -12.5t-12 -29.5t12 -29.5t29 -12.5t28.5 12.5t11.5 29.5
t-11.5 29.5t-28.5 12.5z" />
    <glyph glyph-name="AE" unicode="&#xc6;" horiz-adv-x="1082" 
d="M959 386v-85h-326v-216h369v-85h-459v193h-278l-137 -193h-118l493 670h499v-85h-369v-199h326zM532 568l-212 -298h223v349z" />
    <glyph glyph-name="Ccedilla" unicode="&#xc7;" horiz-adv-x="674" 
d="M403 685q73 0 119.5 -20t81.5 -52v-99q-22 16 -49.5 35t-64 33.5t-87.5 14.5q-75 0 -134 -34t-93 -93.5t-34 -134.5t34 -134t93 -93.5t134 -34.5q77 0 131.5 25.5t89.5 52.5v-90q-35 -31 -91.5 -53.5t-129.5 -22.5q-76 0 -140 27.5t-112 75.5t-74.5 111.5t-26.5 135.5
t26.5 135.5t74.5 111.5t112 75.5t140 27.5zM423 2l-6 -72q41 5 68.5 -17.5t27.5 -59.5q0 -40 -29 -66.5t-81 -26.5q-15 0 -38.5 6t-39.5 19l7 55q16 -8 34 -14.5t40 -6.5q17 0 28 9t11 22q0 29 -39 29q-7 0 -16 -2t-19 -7l-16 12l14 120h54z" />
    <glyph glyph-name="Egrave" unicode="&#xc8;" horiz-adv-x="649" 
d="M526 386v-85h-326v-216h369v-85h-459v670h459v-85h-369v-199h326zM161 890h114l110 -135h-82z" />
    <glyph glyph-name="Eacute" unicode="&#xc9;" horiz-adv-x="649" 
d="M526 386v-85h-326v-216h369v-85h-459v670h459v-85h-369v-199h326zM512 890l-142 -135h-82l110 135h114z" />
    <glyph glyph-name="Ecircumflex" unicode="&#xca;" horiz-adv-x="649" 
d="M526 386v-85h-326v-216h369v-85h-459v670h459v-85h-369v-199h326zM362 890l140 -139h-82l-80 78l-80 -78h-82l140 139h44z" />
    <glyph glyph-name="Edieresis" unicode="&#xcb;" horiz-adv-x="649" 
d="M526 386v-85h-326v-216h369v-85h-459v670h459v-85h-369v-199h326zM445 889q26 0 44.5 -18.5t18.5 -44.5q0 -25 -18.5 -44t-44.5 -19t-44.5 19t-18.5 44q0 26 18.5 44.5t44.5 18.5zM235 889q26 0 44.5 -18.5t18.5 -44.5q0 -25 -18.5 -44t-44.5 -19t-44.5 19t-18.5 44
q0 26 18.5 44.5t44.5 18.5z" />
    <glyph glyph-name="Igrave" unicode="&#xcc;" horiz-adv-x="536" 
d="M426 85v-85h-316v85h113v500h-113v85h316v-85h-113v-500h113zM93 890h114l110 -135h-82z" />
    <glyph glyph-name="Iacute" unicode="&#xcd;" horiz-adv-x="536" 
d="M426 85v-85h-316v85h113v500h-113v85h316v-85h-113v-500h113zM444 890l-142 -135h-82l110 135h114z" />
    <glyph glyph-name="Icircumflex" unicode="&#xce;" horiz-adv-x="536" 
d="M426 85v-85h-316v85h113v500h-113v85h316v-85h-113v-500h113zM294 890l140 -139h-82l-80 78l-80 -78h-82l140 139h44z" />
    <glyph glyph-name="Idieresis" unicode="&#xcf;" horiz-adv-x="536" 
d="M426 85v-85h-316v85h113v500h-113v85h316v-85h-113v-500h113zM377 889q26 0 44.5 -18.5t18.5 -44.5q0 -25 -18.5 -44t-44.5 -19t-44.5 19t-18.5 44q0 26 18.5 44.5t44.5 18.5zM167 889q26 0 44.5 -18.5t18.5 -44.5q0 -25 -18.5 -44t-44.5 -19t-44.5 19t-18.5 44
q0 26 18.5 44.5t44.5 18.5z" />
    <glyph glyph-name="Eth" unicode="&#xd0;" horiz-adv-x="759" 
d="M356 686q113 0 191.5 -46t120 -124.5t41.5 -177.5t-41.5 -177.5t-120 -124.5t-191.5 -46q-69 0 -127 7t-119 18v646q61 11 119 18t127 7zM356 601q-36 0 -77 -2.5t-79 -7.5v-506q38 -4 79 -7t77 -3q81 0 139.5 34.5t90 94t31.5 134.5t-31.5 134.5t-90 94t-139.5 34.5z
M313 383v-90h-301v90h301z" />
    <glyph glyph-name="Ntilde" unicode="&#xd1;" horiz-adv-x="779" 
d="M669 670v-670h-34l-435 479v-479h-90v670h34l435 -485v485h90zM561 874q0 -43 -29.5 -73t-74.5 -30q-27 0 -44.5 7.5t-30 18t-24 18t-27.5 7.5q-17 0 -26.5 -13.5t-9.5 -32.5h-68q0 44 29.5 73.5t74.5 29.5q27 0 44.5 -7.5t30 -18t24 -18t27.5 -7.5q18 0 27 13.5t9 32.5
h68z" />
    <glyph glyph-name="Ograve" unicode="&#xd2;" horiz-adv-x="806" 
d="M403 685q76 0 140 -27.5t112 -75.5t74.5 -111.5t26.5 -135.5t-26.5 -135.5t-74.5 -111.5t-112 -75.5t-140 -27.5t-140 27.5t-112 75.5t-74.5 111.5t-26.5 135.5t26.5 135.5t74.5 111.5t112 75.5t140 27.5zM403 597q-75 0 -134 -34t-93 -93.5t-34 -134.5t34 -134t93 -93.5
t134 -34.5t134 34.5t93 93.5t34 134t-34 134.5t-93 93.5t-134 34zM224 890h114l110 -135h-82z" />
    <glyph glyph-name="Oacute" unicode="&#xd3;" horiz-adv-x="806" 
d="M403 685q76 0 140 -27.5t112 -75.5t74.5 -111.5t26.5 -135.5t-26.5 -135.5t-74.5 -111.5t-112 -75.5t-140 -27.5t-140 27.5t-112 75.5t-74.5 111.5t-26.5 135.5t26.5 135.5t74.5 111.5t112 75.5t140 27.5zM403 597q-75 0 -134 -34t-93 -93.5t-34 -134.5t34 -134t93 -93.5
t134 -34.5t134 34.5t93 93.5t34 134t-34 134.5t-93 93.5t-134 34zM575 890l-142 -135h-82l110 135h114z" />
    <glyph glyph-name="Ocircumflex" unicode="&#xd4;" horiz-adv-x="806" 
d="M403 685q76 0 140 -27.5t112 -75.5t74.5 -111.5t26.5 -135.5t-26.5 -135.5t-74.5 -111.5t-112 -75.5t-140 -27.5t-140 27.5t-112 75.5t-74.5 111.5t-26.5 135.5t26.5 135.5t74.5 111.5t112 75.5t140 27.5zM403 597q-75 0 -134 -34t-93 -93.5t-34 -134.5t34 -134t93 -93.5
t134 -34.5t134 34.5t93 93.5t34 134t-34 134.5t-93 93.5t-134 34zM425 890l140 -139h-82l-80 78l-80 -78h-82l140 139h44z" />
    <glyph glyph-name="Otilde" unicode="&#xd5;" horiz-adv-x="806" 
d="M403 685q76 0 140 -27.5t112 -75.5t74.5 -111.5t26.5 -135.5t-26.5 -135.5t-74.5 -111.5t-112 -75.5t-140 -27.5t-140 27.5t-112 75.5t-74.5 111.5t-26.5 135.5t26.5 135.5t74.5 111.5t112 75.5t140 27.5zM403 597q-75 0 -134 -34t-93 -93.5t-34 -134.5t34 -134t93 -93.5
t134 -34.5t134 34.5t93 93.5t34 134t-34 134.5t-93 93.5t-134 34zM577 874q0 -43 -29.5 -73t-74.5 -30q-27 0 -44.5 7.5t-30 18t-24 18t-27.5 7.5q-17 0 -26.5 -13.5t-9.5 -32.5h-68q0 44 29.5 73.5t74.5 29.5q27 0 44.5 -7.5t30 -18t24 -18t27.5 -7.5q18 0 27 13.5t9 32.5
h68z" />
    <glyph glyph-name="Odieresis" unicode="&#xd6;" horiz-adv-x="806" 
d="M403 685q76 0 140 -27.5t112 -75.5t74.5 -111.5t26.5 -135.5t-26.5 -135.5t-74.5 -111.5t-112 -75.5t-140 -27.5t-140 27.5t-112 75.5t-74.5 111.5t-26.5 135.5t26.5 135.5t74.5 111.5t112 75.5t140 27.5zM403 597q-75 0 -134 -34t-93 -93.5t-34 -134.5t34 -134t93 -93.5
t134 -34.5t134 34.5t93 93.5t34 134t-34 134.5t-93 93.5t-134 34zM508 889q26 0 44.5 -18.5t18.5 -44.5q0 -25 -18.5 -44t-44.5 -19t-44.5 19t-18.5 44q0 26 18.5 44.5t44.5 18.5zM298 889q26 0 44.5 -18.5t18.5 -44.5q0 -25 -18.5 -44t-44.5 -19t-44.5 19t-18.5 44
q0 26 18.5 44.5t44.5 18.5z" />
    <glyph glyph-name="multiply" unicode="&#xd7;" horiz-adv-x="500" 
d="M144 483l106 -106l106 106l64 -64l-106 -106l106 -106l-64 -64l-106 106l-106 -107l-64 64l107 107l-106 106z" />
    <glyph glyph-name="Oslash" unicode="&#xd8;" horiz-adv-x="806" 
d="M403 685q57 0 107.5 -15.5t92.5 -44.5l47 60l52 -40l-49 -61q48 -48 75.5 -112t27.5 -137q0 -72 -26.5 -135.5t-74.5 -111.5t-112 -75.5t-140 -27.5q-53 0 -100 13.5t-88 38.5l-41 -52l-49 40l40 50q-54 48 -84.5 115.5t-30.5 144.5q0 72 26.5 135.5t74.5 111.5t112 75.5
t140 27.5zM403 597q-75 0 -134 -34t-93 -93.5t-34 -134.5q0 -58 20.5 -107t57.5 -84l328 412q-31 20 -67.5 30.5t-77.5 10.5zM664 335q0 53 -17.5 99t-49.5 80l-326 -408q60 -33 132 -33q75 0 134 34.5t93 93.5t34 134z" />
    <glyph glyph-name="Ugrave" unicode="&#xd9;" horiz-adv-x="752" 
d="M652 672v-407q0 -87 -36.5 -149.5t-98.5 -95.5t-141 -33q-78 0 -140.5 33t-99 95.5t-36.5 149.5v407h90v-404q0 -68 25.5 -110t68 -60.5t92.5 -18.5q50 1 92.5 19.5t68 60t25.5 109.5v404h90zM197 890h114l110 -135h-82z" />
    <glyph glyph-name="Uacute" unicode="&#xda;" horiz-adv-x="752" 
d="M652 672v-407q0 -87 -36.5 -149.5t-98.5 -95.5t-141 -33q-78 0 -140.5 33t-99 95.5t-36.5 149.5v407h90v-404q0 -68 25.5 -110t68 -60.5t92.5 -18.5q50 1 92.5 19.5t68 60t25.5 109.5v404h90zM548 890l-142 -135h-82l110 135h114z" />
    <glyph glyph-name="Ucircumflex" unicode="&#xdb;" horiz-adv-x="752" 
d="M652 672v-407q0 -87 -36.5 -149.5t-98.5 -95.5t-141 -33q-78 0 -140.5 33t-99 95.5t-36.5 149.5v407h90v-404q0 -68 25.5 -110t68 -60.5t92.5 -18.5q50 1 92.5 19.5t68 60t25.5 109.5v404h90zM398 890l140 -139h-82l-80 78l-80 -78h-82l140 139h44z" />
    <glyph glyph-name="Udieresis" unicode="&#xdc;" horiz-adv-x="752" 
d="M652 672v-407q0 -87 -36.5 -149.5t-98.5 -95.5t-141 -33q-78 0 -140.5 33t-99 95.5t-36.5 149.5v407h90v-404q0 -68 25.5 -110t68 -60.5t92.5 -18.5q50 1 92.5 19.5t68 60t25.5 109.5v404h90zM481 889q26 0 44.5 -18.5t18.5 -44.5q0 -25 -18.5 -44t-44.5 -19t-44.5 19
t-18.5 44q0 26 18.5 44.5t44.5 18.5zM271 889q26 0 44.5 -18.5t18.5 -44.5q0 -25 -18.5 -44t-44.5 -19t-44.5 19t-18.5 44q0 26 18.5 44.5t44.5 18.5z" />
    <glyph glyph-name="Yacute" unicode="&#xdd;" horiz-adv-x="631" 
d="M621 670l-257 -395v-275h-97v262l-257 408h108l196 -316l199 316h108zM488 890l-142 -135h-82l110 135h114z" />
    <glyph glyph-name="Thorn" unicode="&#xde;" horiz-adv-x="634" 
d="M207 670v-120h151q58 0 109.5 -24.5t84 -69t32.5 -104.5q0 -55 -26.5 -101.5t-77 -74.5t-121.5 -28q-44 0 -80.5 6.5t-71.5 17.5v-172h-97v670h97zM333 460h-126v-197q32 -17 72 -23.5t74 -6.5q68 0 98.5 34.5t30.5 84.5t-42 79t-107 29z" />
    <glyph glyph-name="germandbls" unicode="&#xdf;" horiz-adv-x="648" 
d="M264 725q46 0 88.5 -18.5t70 -57t27.5 -97.5q0 -39 -13 -64t-30.5 -43t-30.5 -35.5t-13 -40.5q0 -20 14 -33t34 -22t38 -19l57 -29q47 -24 74.5 -56.5t27.5 -74.5q0 -47 -26 -79.5t-66.5 -49t-86.5 -16.5q-47 0 -84.5 13t-63.5 32v87q29 -22 65 -37t83 -15
q41 0 69.5 17.5t28.5 48.5q0 19 -17.5 34.5t-37 26.5t-26.5 14l-71 29q-41 17 -67 47t-26 73q0 33 13 58.5t30.5 47.5t30.5 43.5t13 46.5q0 28 -15 48.5t-38 32t-47 10.5q-24 0 -47.5 -9.5t-39 -33.5t-15.5 -69v-535h-82v544q0 67 27 106.5t68.5 57t83.5 17.5z" />
    <glyph glyph-name="agrave" unicode="&#xe0;" 
d="M291 510q43 0 87.5 -20.5t76.5 -56.5v67h82v-500h-82v85q-26 -40 -70.5 -70t-101.5 -30q-64 0 -117 32.5t-84.5 90.5t-31.5 134q0 83 31.5 143t86.5 92.5t123 32.5zM306 430q-54 0 -92 -27t-58.5 -69.5t-20.5 -91.5q0 -48 20 -88.5t56.5 -64.5t84.5 -24q46 0 82 24
t57 66.5t20 95.5l-1 96q-31 39 -66.5 61t-81.5 22zM132 720h114l110 -135h-82z" />
    <glyph glyph-name="aacute" unicode="&#xe1;" 
d="M291 510q43 0 87.5 -20.5t76.5 -56.5v67h82v-500h-82v85q-26 -40 -70.5 -70t-101.5 -30q-64 0 -117 32.5t-84.5 90.5t-31.5 134q0 83 31.5 143t86.5 92.5t123 32.5zM306 430q-54 0 -92 -27t-58.5 -69.5t-20.5 -91.5q0 -48 20 -88.5t56.5 -64.5t84.5 -24q46 0 82 24
t57 66.5t20 95.5l-1 96q-31 39 -66.5 61t-81.5 22zM483 720l-142 -135h-82l110 135h114z" />
    <glyph glyph-name="acircumflex" unicode="&#xe2;" 
d="M291 510q43 0 87.5 -20.5t76.5 -56.5v67h82v-500h-82v85q-26 -40 -70.5 -70t-101.5 -30q-64 0 -117 32.5t-84.5 90.5t-31.5 134q0 83 31.5 143t86.5 92.5t123 32.5zM306 430q-54 0 -92 -27t-58.5 -69.5t-20.5 -91.5q0 -48 20 -88.5t56.5 -64.5t84.5 -24q46 0 82 24
t57 66.5t20 95.5l-1 96q-31 39 -66.5 61t-81.5 22zM333 720l140 -139h-82l-80 78l-80 -78h-82l140 139h44z" />
    <glyph glyph-name="atilde" unicode="&#xe3;" 
d="M291 510q43 0 87.5 -20.5t76.5 -56.5v67h82v-500h-82v85q-26 -40 -70.5 -70t-101.5 -30q-64 0 -117 32.5t-84.5 90.5t-31.5 134q0 83 31.5 143t86.5 92.5t123 32.5zM306 430q-54 0 -92 -27t-58.5 -69.5t-20.5 -91.5q0 -48 20 -88.5t56.5 -64.5t84.5 -24q46 0 82 24
t57 66.5t20 95.5l-1 96q-31 39 -66.5 61t-81.5 22zM485 704q0 -43 -29.5 -73t-74.5 -30q-27 0 -44.5 7.5t-30 18t-24 18t-27.5 7.5q-17 0 -26.5 -13.5t-9.5 -32.5h-68q0 44 29.5 73.5t74.5 29.5q27 0 44.5 -7.5t30 -18t24 -18t27.5 -7.5q18 0 27 13.5t9 32.5h68z" />
    <glyph glyph-name="adieresis" unicode="&#xe4;" 
d="M291 510q43 0 87.5 -20.5t76.5 -56.5v67h82v-500h-82v85q-26 -40 -70.5 -70t-101.5 -30q-64 0 -117 32.5t-84.5 90.5t-31.5 134q0 83 31.5 143t86.5 92.5t123 32.5zM306 430q-54 0 -92 -27t-58.5 -69.5t-20.5 -91.5q0 -48 20 -88.5t56.5 -64.5t84.5 -24q46 0 82 24
t57 66.5t20 95.5l-1 96q-31 39 -66.5 61t-81.5 22zM416 719q26 0 44.5 -18.5t18.5 -44.5q0 -25 -18.5 -44t-44.5 -19t-44.5 19t-18.5 44q0 26 18.5 44.5t44.5 18.5zM206 719q26 0 44.5 -18.5t18.5 -44.5q0 -25 -18.5 -44t-44.5 -19t-44.5 19t-18.5 44q0 26 18.5 44.5
t44.5 18.5z" />
    <glyph glyph-name="aring" unicode="&#xe5;" 
d="M291 510q43 0 87.5 -20.5t76.5 -56.5v67h82v-500h-82v85q-26 -40 -70.5 -70t-101.5 -30q-64 0 -117 32.5t-84.5 90.5t-31.5 134q0 83 31.5 143t86.5 92.5t123 32.5zM306 430q-54 0 -92 -27t-58.5 -69.5t-20.5 -91.5q0 -48 20 -88.5t56.5 -64.5t84.5 -24q46 0 82 24
t57 66.5t20 95.5l-1 96q-31 39 -66.5 61t-81.5 22zM311 725q36 0 59 -24.5t23 -58.5t-23 -58.5t-59 -24.5t-59.5 24.5t-23.5 58.5t23.5 58.5t59.5 24.5zM311 684q-17 0 -29 -12.5t-12 -29.5t12 -29.5t29 -12.5t28.5 12.5t11.5 29.5t-11.5 29.5t-28.5 12.5z" />
    <glyph glyph-name="ae" unicode="&#xe6;" horiz-adv-x="987" 
d="M707 510q77 0 128 -32t76.5 -87t25.5 -124v-49h-384q6 -42 29 -77t60 -55.5t85 -20.5q54 0 101 27.5t79 60.5l-1 -89q-14 -17 -41.5 -35.5t-63 -31t-74.5 -12.5q-76 0 -135 36t-92.5 95.5t-33.5 130.5t31 131t85.5 96t124.5 36zM707 430q-62 0 -102 -41.5t-50 -100.5h301
q-5 49 -27.5 80t-54.5 46.5t-67 15.5zM291 510q43 0 87.5 -20.5t76.5 -56.5v67h82v-500h-82v85q-26 -40 -70.5 -70t-101.5 -30q-64 0 -117 32.5t-84.5 90.5t-31.5 134q0 83 31.5 143t86.5 92.5t123 32.5zM306 430q-54 0 -92 -27t-58.5 -69.5t-20.5 -91.5q0 -48 20 -88.5
t56.5 -64.5t84.5 -24q46 0 82 24t57 66.5t20 95.5l-1 96q-31 39 -66.5 61t-81.5 22z" />
    <glyph glyph-name="ccedilla" unicode="&#xe7;" horiz-adv-x="511" 
d="M311 510q55 0 95 -17.5t55 -31.5v-83q-28 21 -64 36.5t-86 15.5q-53 0 -93 -25.5t-61.5 -67t-21.5 -90.5q0 -48 21.5 -89.5t61.5 -67t93 -25.5q50 0 86 15.5t64 36.5v-83q-15 -15 -55 -32t-95 -17q-76 0 -135 36t-92.5 95.5t-33.5 130.5t33.5 131t92.5 96t135 36zM319 2
l-6 -72q41 5 68.5 -17.5t27.5 -59.5q0 -40 -29 -66.5t-81 -26.5q-15 0 -38.5 6t-39.5 19l7 55q16 -8 34 -14.5t40 -6.5q17 0 28 9t11 22q0 29 -39 29q-7 0 -16 -2t-19 -7l-16 12l14 120h54z" />
    <glyph glyph-name="egrave" unicode="&#xe8;" horiz-adv-x="571" 
d="M291 510q77 0 128 -32t76.5 -87t25.5 -124v-49h-384q6 -42 29 -77t60 -55.5t85 -20.5q54 0 101 27.5t79 60.5l-1 -89q-14 -17 -41.5 -35.5t-63 -31t-74.5 -12.5q-76 0 -135 36t-92.5 95.5t-33.5 130.5t31 131t85.5 96t124.5 36zM291 430q-62 0 -102 -41.5t-50 -100.5h301
q-5 49 -27.5 80t-54.5 46.5t-67 15.5zM117 720h114l110 -135h-82z" />
    <glyph glyph-name="eacute" unicode="&#xe9;" horiz-adv-x="571" 
d="M291 510q77 0 128 -32t76.5 -87t25.5 -124v-49h-384q6 -42 29 -77t60 -55.5t85 -20.5q54 0 101 27.5t79 60.5l-1 -89q-14 -17 -41.5 -35.5t-63 -31t-74.5 -12.5q-76 0 -135 36t-92.5 95.5t-33.5 130.5t31 131t85.5 96t124.5 36zM291 430q-62 0 -102 -41.5t-50 -100.5h301
q-5 49 -27.5 80t-54.5 46.5t-67 15.5zM468 720l-142 -135h-82l110 135h114z" />
    <glyph glyph-name="ecircumflex" unicode="&#xea;" horiz-adv-x="571" 
d="M291 510q77 0 128 -32t76.5 -87t25.5 -124v-49h-384q6 -42 29 -77t60 -55.5t85 -20.5q54 0 101 27.5t79 60.5l-1 -89q-14 -17 -41.5 -35.5t-63 -31t-74.5 -12.5q-76 0 -135 36t-92.5 95.5t-33.5 130.5t31 131t85.5 96t124.5 36zM291 430q-62 0 -102 -41.5t-50 -100.5h301
q-5 49 -27.5 80t-54.5 46.5t-67 15.5zM318 720l140 -139h-82l-80 78l-80 -78h-82l140 139h44z" />
    <glyph glyph-name="edieresis" unicode="&#xeb;" horiz-adv-x="571" 
d="M291 510q77 0 128 -32t76.5 -87t25.5 -124v-49h-384q6 -42 29 -77t60 -55.5t85 -20.5q54 0 101 27.5t79 60.5l-1 -89q-14 -17 -41.5 -35.5t-63 -31t-74.5 -12.5q-76 0 -135 36t-92.5 95.5t-33.5 130.5t31 131t85.5 96t124.5 36zM291 430q-62 0 -102 -41.5t-50 -100.5h301
q-5 49 -27.5 80t-54.5 46.5t-67 15.5zM401 719q26 0 44.5 -18.5t18.5 -44.5q0 -25 -18.5 -44t-44.5 -19t-44.5 19t-18.5 44q0 26 18.5 44.5t44.5 18.5zM191 719q26 0 44.5 -18.5t18.5 -44.5q0 -25 -18.5 -44t-44.5 -19t-44.5 19t-18.5 44q0 26 18.5 44.5t44.5 18.5z" />
    <glyph glyph-name="igrave" unicode="&#xec;" horiz-adv-x="301" 
d="M216 500v-500h-82v423h-79v77h161zM-4 720h114l110 -135h-82z" />
    <glyph glyph-name="iacute" unicode="&#xed;" horiz-adv-x="301" 
d="M216 500v-500h-82v423h-79v77h161zM347 720l-142 -135h-82l110 135h114z" />
    <glyph glyph-name="icircumflex" unicode="&#xee;" horiz-adv-x="299" 
d="M174 720l140 -139h-82l-80 78l-80 -78h-82l140 139h44zM242 500v-500h-82v423h-79v77h161z" />
    <glyph glyph-name="idieresis" unicode="&#xef;" horiz-adv-x="301" 
d="M216 500v-500h-82v423h-79v77h161zM280 719q26 0 44.5 -18.5t18.5 -44.5q0 -25 -18.5 -44t-44.5 -19t-44.5 19t-18.5 44q0 26 18.5 44.5t44.5 18.5zM70 719q26 0 44.5 -18.5t18.5 -44.5q0 -25 -18.5 -44t-44.5 -19t-44.5 19t-18.5 44q0 26 18.5 44.5t44.5 18.5z" />
    <glyph glyph-name="eth" unicode="&#xf0;" horiz-adv-x="617" 
d="M333 710q43 -34 78 -70l99 42l21 -54l-79 -34q59 -72 87 -152t28 -166q0 -80 -32.5 -146.5t-90 -105.5t-133.5 -39t-135 36t-92.5 95.5t-33.5 130.5t33.5 131t92.5 96t135 36q46 0 89 -22.5t83 -71.5q-13 40 -37.5 79t-54.5 73l-99 -42l-21 54l77 33q-27 26 -55 46z
M311 430q-53 0 -93 -25.5t-61.5 -67t-21.5 -90.5q0 -48 21.5 -89.5t61.5 -67t93 -25.5q54 0 93.5 25.5t61 67t21.5 89.5q0 49 -21.5 90.5t-61 67t-93.5 25.5z" />
    <glyph glyph-name="ntilde" unicode="&#xf1;" horiz-adv-x="585" 
d="M167 500v-79q16 20 41 40.5t56.5 34.5t65.5 14q51 0 93 -22.5t67 -68t25 -114.5v-305h-82l-1 297q0 65 -28.5 99t-87.5 34q-40 0 -79.5 -29.5t-69.5 -68.5v-332h-82v500h82zM480 704q0 -43 -29.5 -73t-74.5 -30q-27 0 -44.5 7.5t-30 18t-24 18t-27.5 7.5
q-17 0 -26.5 -13.5t-9.5 -32.5h-68q0 44 29.5 73.5t74.5 29.5q27 0 44.5 -7.5t30 -18t24 -18t27.5 -7.5q18 0 27 13.5t9 32.5h68z" />
    <glyph glyph-name="ograve" unicode="&#xf2;" 
d="M311 510q76 0 135 -36t92.5 -96t33.5 -131t-33.5 -130.5t-92.5 -95.5t-135 -36t-135 36t-92.5 95.5t-33.5 130.5t33.5 131t92.5 96t135 36zM311 430q-53 0 -93 -25.5t-61.5 -67t-21.5 -90.5q0 -48 21.5 -89.5t61.5 -67t93 -25.5q54 0 93.5 25.5t61 67t21.5 89.5
q0 49 -21.5 90.5t-61 67t-93.5 25.5zM132 720h114l110 -135h-82z" />
    <glyph glyph-name="oacute" unicode="&#xf3;" 
d="M311 510q76 0 135 -36t92.5 -96t33.5 -131t-33.5 -130.5t-92.5 -95.5t-135 -36t-135 36t-92.5 95.5t-33.5 130.5t33.5 131t92.5 96t135 36zM311 430q-53 0 -93 -25.5t-61.5 -67t-21.5 -90.5q0 -48 21.5 -89.5t61.5 -67t93 -25.5q54 0 93.5 25.5t61 67t21.5 89.5
q0 49 -21.5 90.5t-61 67t-93.5 25.5zM483 720l-142 -135h-82l110 135h114z" />
    <glyph glyph-name="ocircumflex" unicode="&#xf4;" 
d="M311 510q76 0 135 -36t92.5 -96t33.5 -131t-33.5 -130.5t-92.5 -95.5t-135 -36t-135 36t-92.5 95.5t-33.5 130.5t33.5 131t92.5 96t135 36zM311 430q-53 0 -93 -25.5t-61.5 -67t-21.5 -90.5q0 -48 21.5 -89.5t61.5 -67t93 -25.5q54 0 93.5 25.5t61 67t21.5 89.5
q0 49 -21.5 90.5t-61 67t-93.5 25.5zM333 720l140 -139h-82l-80 78l-80 -78h-82l140 139h44z" />
    <glyph glyph-name="otilde" unicode="&#xf5;" 
d="M311 510q76 0 135 -36t92.5 -96t33.5 -131t-33.5 -130.5t-92.5 -95.5t-135 -36t-135 36t-92.5 95.5t-33.5 130.5t33.5 131t92.5 96t135 36zM311 430q-53 0 -93 -25.5t-61.5 -67t-21.5 -90.5q0 -48 21.5 -89.5t61.5 -67t93 -25.5q54 0 93.5 25.5t61 67t21.5 89.5
q0 49 -21.5 90.5t-61 67t-93.5 25.5zM485 704q0 -43 -29.5 -73t-74.5 -30q-27 0 -44.5 7.5t-30 18t-24 18t-27.5 7.5q-17 0 -26.5 -13.5t-9.5 -32.5h-68q0 44 29.5 73.5t74.5 29.5q27 0 44.5 -7.5t30 -18t24 -18t27.5 -7.5q18 0 27 13.5t9 32.5h68z" />
    <glyph glyph-name="odieresis" unicode="&#xf6;" 
d="M311 510q76 0 135 -36t92.5 -96t33.5 -131t-33.5 -130.5t-92.5 -95.5t-135 -36t-135 36t-92.5 95.5t-33.5 130.5t33.5 131t92.5 96t135 36zM311 430q-53 0 -93 -25.5t-61.5 -67t-21.5 -90.5q0 -48 21.5 -89.5t61.5 -67t93 -25.5q54 0 93.5 25.5t61 67t21.5 89.5
q0 49 -21.5 90.5t-61 67t-93.5 25.5zM416 719q26 0 44.5 -18.5t18.5 -44.5q0 -25 -18.5 -44t-44.5 -19t-44.5 19t-18.5 44q0 26 18.5 44.5t44.5 18.5zM206 719q26 0 44.5 -18.5t18.5 -44.5q0 -25 -18.5 -44t-44.5 -19t-44.5 19t-18.5 44q0 26 18.5 44.5t44.5 18.5z" />
    <glyph glyph-name="divide" unicode="&#xf7;" horiz-adv-x="551" 
d="M276 557q26 0 44.5 -18.5t18.5 -44.5q0 -25 -18.5 -44t-44.5 -19t-44.5 19t-18.5 44q0 26 18.5 44.5t44.5 18.5zM471 358v-90h-391v90h391zM276 193q26 0 44.5 -18.5t18.5 -44.5q0 -25 -18.5 -44t-44.5 -19t-44.5 19t-18.5 44q0 26 18.5 44.5t44.5 18.5z" />
    <glyph glyph-name="oslash" unicode="&#xf8;" horiz-adv-x="612" 
d="M311 510q43 0 80.5 -12t68.5 -34l43 46l52 -40l-47 -49q31 -35 47.5 -80t16.5 -94q0 -71 -33.5 -130.5t-92.5 -95.5t-135 -36q-47 0 -88.5 14.5t-74.5 40.5l-52 -55l-49 40l57 61q-26 33 -40 74.5t-14 86.5q0 71 33.5 131t92.5 96t135 36zM311 430q-53 0 -93 -25.5
t-61.5 -67t-21.5 -90.5q0 -55 27 -100l242 257q-41 26 -93 26zM487 247q0 64 -36 113l-246 -260q21 -17 48 -26t58 -9q54 0 93.5 25.5t61 67t21.5 89.5z" />
    <glyph glyph-name="ugrave" unicode="&#xf9;" horiz-adv-x="564" 
d="M494 500v-296q0 -66 -28 -114t-76 -74t-108 -26t-108 26t-76 74t-28 114v296h85v-296q0 -65 38.5 -99.5t88.5 -34.5t88.5 34.5t38.5 99.5v296h85zM108 720h114l110 -135h-82z" />
    <glyph glyph-name="uacute" unicode="&#xfa;" horiz-adv-x="564" 
d="M494 500v-296q0 -66 -28 -114t-76 -74t-108 -26t-108 26t-76 74t-28 114v296h85v-296q0 -65 38.5 -99.5t88.5 -34.5t88.5 34.5t38.5 99.5v296h85zM459 720l-142 -135h-82l110 135h114z" />
    <glyph glyph-name="ucircumflex" unicode="&#xfb;" horiz-adv-x="564" 
d="M494 500v-296q0 -66 -28 -114t-76 -74t-108 -26t-108 26t-76 74t-28 114v296h85v-296q0 -65 38.5 -99.5t88.5 -34.5t88.5 34.5t38.5 99.5v296h85zM309 720l140 -139h-82l-80 78l-80 -78h-82l140 139h44z" />
    <glyph glyph-name="udieresis" unicode="&#xfc;" horiz-adv-x="564" 
d="M494 500v-296q0 -66 -28 -114t-76 -74t-108 -26t-108 26t-76 74t-28 114v296h85v-296q0 -65 38.5 -99.5t88.5 -34.5t88.5 34.5t38.5 99.5v296h85zM392 719q26 0 44.5 -18.5t18.5 -44.5q0 -25 -18.5 -44t-44.5 -19t-44.5 19t-18.5 44q0 26 18.5 44.5t44.5 18.5zM182 719
q26 0 44.5 -18.5t18.5 -44.5q0 -25 -18.5 -44t-44.5 -19t-44.5 19t-18.5 44q0 26 18.5 44.5t44.5 18.5z" />
    <glyph glyph-name="yacute" unicode="&#xfd;" horiz-adv-x="571" 
d="M113 500l175 -368l170 368h98l-368 -740h-95l143 270l-221 470h98zM457 720l-142 -135h-82l110 135h114z" />
    <glyph glyph-name="thorn" unicode="&#xfe;" 
d="M85 720h82v-305q26 40 70.5 67.5t101.5 27.5q65 0 117.5 -31.5t84 -88t31.5 -132.5q0 -82 -31.5 -142.5t-86 -93t-123.5 -32.5q-43 0 -87.5 20.5t-76.5 56.5v-307h-82v960zM326 429q-45 0 -81.5 -22.5t-57 -63t-20.5 -94.5l1 -96q32 -39 67 -60.5t81 -21.5q54 0 92 26.5
t58.5 69.5t20.5 91q0 49 -20 87.5t-56 61t-85 22.5z" />
    <glyph glyph-name="ydieresis" unicode="&#xff;" horiz-adv-x="571" 
d="M113 500l175 -368l170 368h98l-368 -740h-95l143 270l-221 470h98zM390 719q26 0 44.5 -18.5t18.5 -44.5q0 -25 -18.5 -44t-44.5 -19t-44.5 19t-18.5 44q0 26 18.5 44.5t44.5 18.5zM180 719q26 0 44.5 -18.5t18.5 -44.5q0 -25 -18.5 -44t-44.5 -19t-44.5 19t-18.5 44
q0 26 18.5 44.5t44.5 18.5z" />
    <glyph glyph-name="Amacron" unicode="&#x100;" horiz-adv-x="691" 
d="M368 670l313 -670h-108l-70 160h-314l-71 -160h-108l313 670h45zM347 518l-121 -273h240zM521 888v-80h-350v80h350z" />
    <glyph glyph-name="amacron" unicode="&#x101;" 
d="M291 510q43 0 87.5 -20.5t76.5 -56.5v67h82v-500h-82v85q-26 -40 -70.5 -70t-101.5 -30q-64 0 -117 32.5t-84.5 90.5t-31.5 134q0 83 31.5 143t86.5 92.5t123 32.5zM306 430q-54 0 -92 -27t-58.5 -69.5t-20.5 -91.5q0 -48 20 -88.5t56.5 -64.5t84.5 -24q46 0 82 24
t57 66.5t20 95.5l-1 96q-31 39 -66.5 61t-81.5 22zM486 718v-80h-350v80h350z" />
    <glyph glyph-name="Abreve" unicode="&#x102;" horiz-adv-x="691" 
d="M368 670l313 -670h-108l-70 160h-314l-71 -160h-108l313 670h45zM347 518l-121 -273h240zM508 890q-2 -69 -48 -109.5t-114 -40.5q-67 0 -113.5 40.5t-48.5 109.5h72q5 -36 27.5 -59t62.5 -23t63 23t27 59h72z" />
    <glyph glyph-name="abreve" unicode="&#x103;" 
d="M291 510q43 0 87.5 -20.5t76.5 -56.5v67h82v-500h-82v85q-26 -40 -70.5 -70t-101.5 -30q-64 0 -117 32.5t-84.5 90.5t-31.5 134q0 83 31.5 143t86.5 92.5t123 32.5zM306 430q-54 0 -92 -27t-58.5 -69.5t-20.5 -91.5q0 -48 20 -88.5t56.5 -64.5t84.5 -24q46 0 82 24
t57 66.5t20 95.5l-1 96q-31 39 -66.5 61t-81.5 22zM473 720q-2 -69 -48 -109.5t-114 -40.5q-67 0 -113.5 40.5t-48.5 109.5h72q5 -36 27.5 -59t62.5 -23t63 23t27 59h72z" />
    <glyph glyph-name="Aogonek" unicode="&#x104;" horiz-adv-x="691" 
d="M368 670l313 -670h-108l-70 160h-314l-71 -160h-108l313 670h45zM347 518l-121 -273h240zM582 1h80q-23 -9 -48 -24t-42 -34t-17 -41q0 -21 13.5 -36t39.5 -15q17 0 30 5.5t24 12.5v-69q-10 -5 -28.5 -15t-45.5 -10q-45 0 -81 25t-36 74q0 35 20 61t46.5 42.5t44.5 23.5z
" />
    <glyph glyph-name="aogonek" unicode="&#x105;" 
d="M291 510q43 0 87.5 -20.5t76.5 -56.5v67h82v-500h-82v85q-26 -40 -70.5 -70t-101.5 -30q-64 0 -117 32.5t-84.5 90.5t-31.5 134q0 83 31.5 143t86.5 92.5t123 32.5zM306 430q-54 0 -92 -27t-58.5 -69.5t-20.5 -91.5q0 -48 20 -88.5t56.5 -64.5t84.5 -24q46 0 82 24
t57 66.5t20 95.5l-1 96q-31 39 -66.5 61t-81.5 22zM455 1h80q-23 -9 -48 -24t-42 -34t-17 -41q0 -21 13.5 -36t39.5 -15q17 0 30 5.5t24 12.5v-69q-10 -5 -28.5 -15t-45.5 -10q-45 0 -81 25t-36 74q0 35 20 61t46.5 42.5t44.5 23.5z" />
    <glyph glyph-name="Cacute" unicode="&#x106;" horiz-adv-x="674" 
d="M403 685q73 0 119.5 -20t81.5 -52v-99q-22 16 -49.5 35t-64 33.5t-87.5 14.5q-75 0 -134 -34t-93 -93.5t-34 -134.5t34 -134t93 -93.5t134 -34.5q77 0 131.5 25.5t89.5 52.5v-90q-35 -31 -91.5 -53.5t-129.5 -22.5q-76 0 -140 27.5t-112 75.5t-74.5 111.5t-26.5 135.5
t26.5 135.5t74.5 111.5t112 75.5t140 27.5zM577 890l-142 -135h-82l110 135h114z" />
    <glyph glyph-name="cacute" unicode="&#x107;" horiz-adv-x="511" 
d="M311 510q55 0 95 -17.5t55 -31.5v-83q-28 21 -64 36.5t-86 15.5q-53 0 -93 -25.5t-61.5 -67t-21.5 -90.5q0 -48 21.5 -89.5t61.5 -67t93 -25.5q50 0 86 15.5t64 36.5v-83q-15 -15 -55 -32t-95 -17q-76 0 -135 36t-92.5 95.5t-33.5 130.5t33.5 131t92.5 96t135 36z
M472 720l-142 -135h-82l110 135h114z" />
    <glyph glyph-name="Ccaron" unicode="&#x10c;" horiz-adv-x="674" 
d="M403 685q73 0 119.5 -20t81.5 -52v-99q-22 16 -49.5 35t-64 33.5t-87.5 14.5q-75 0 -134 -34t-93 -93.5t-34 -134.5t34 -134t93 -93.5t134 -34.5q77 0 131.5 25.5t89.5 52.5v-90q-35 -31 -91.5 -53.5t-129.5 -22.5q-76 0 -140 27.5t-112 75.5t-74.5 111.5t-26.5 135.5
t26.5 135.5t74.5 111.5t112 75.5t140 27.5zM243 890h82l80 -78l80 78h82l-140 -139h-44z" />
    <glyph glyph-name="ccaron" unicode="&#x10d;" horiz-adv-x="511" 
d="M311 510q55 0 95 -17.5t55 -31.5v-83q-28 21 -64 36.5t-86 15.5q-53 0 -93 -25.5t-61.5 -67t-21.5 -90.5q0 -48 21.5 -89.5t61.5 -67t93 -25.5q50 0 86 15.5t64 36.5v-83q-15 -15 -55 -32t-95 -17q-76 0 -135 36t-92.5 95.5t-33.5 130.5t33.5 131t92.5 96t135 36z
M138 720h82l80 -78l80 78h82l-140 -139h-44z" />
    <glyph glyph-name="Dcaron" unicode="&#x10e;" horiz-adv-x="759" 
d="M356 686q113 0 191.5 -46t120 -124.5t41.5 -177.5t-41.5 -177.5t-120 -124.5t-191.5 -46q-69 0 -127 7t-119 18v646q61 11 119 18t127 7zM356 601q-36 0 -77 -2.5t-79 -7.5v-506q38 -4 79 -7t77 -3q81 0 139.5 34.5t90 94t31.5 134.5t-31.5 134.5t-90 94t-139.5 34.5z
M205 890h82l80 -78l80 78h82l-140 -139h-44z" />
    <glyph glyph-name="dcaron" unicode="&#x10f;" horiz-adv-x="723" 
d="M537 720v-720h-82v85q-26 -40 -70.5 -70t-101.5 -30q-64 0 -117 32.5t-84.5 90.5t-31.5 134q0 83 31.5 143t86.5 92.5t123 32.5q43 0 87.5 -20.5t76.5 -56.5v287h82zM616 718h87l-30 -188h-67zM306 428q-54 0 -92 -26.5t-58.5 -68.5t-20.5 -91q0 -48 20 -88.5t56.5 -64.5
t84.5 -24q46 0 82 24t57 66.5t20 95.5l-1 96q-31 39 -66.5 60t-81.5 21z" />
    <glyph glyph-name="Dcroat" unicode="&#x110;" horiz-adv-x="759" 
d="M356 686q113 0 191.5 -46t120 -124.5t41.5 -177.5t-41.5 -177.5t-120 -124.5t-191.5 -46q-69 0 -127 7t-119 18v646q61 11 119 18t127 7zM356 601q-36 0 -77 -2.5t-79 -7.5v-506q38 -4 79 -7t77 -3q81 0 139.5 34.5t90 94t31.5 134.5t-31.5 134.5t-90 94t-139.5 34.5z
M313 383v-90h-301v90h301z" />
    <glyph glyph-name="dcroat" unicode="&#x111;" horiz-adv-x="612" 
d="M608 639v-80h-71v-559h-82v85q-26 -40 -70.5 -70t-101.5 -30q-64 0 -117 32.5t-84.5 90.5t-31.5 134q0 83 31.5 143t86.5 92.5t123 32.5q43 0 87.5 -20.5t76.5 -56.5v126h-147v80h147v81h82v-81h71zM306 428q-54 0 -92 -26.5t-58.5 -68.5t-20.5 -91q0 -48 20 -88.5
t56.5 -64.5t84.5 -24q46 0 82 24t57 66.5t20 95.5l-1 96q-31 39 -66.5 60t-81.5 21z" />
    <glyph glyph-name="Emacron" unicode="&#x112;" horiz-adv-x="649" 
d="M526 386v-85h-326v-216h369v-85h-459v670h459v-85h-369v-199h326zM515 888v-80h-350v80h350z" />
    <glyph glyph-name="emacron" unicode="&#x113;" horiz-adv-x="571" 
d="M291 510q77 0 128 -32t76.5 -87t25.5 -124v-49h-384q6 -42 29 -77t60 -55.5t85 -20.5q54 0 101 27.5t79 60.5l-1 -89q-14 -17 -41.5 -35.5t-63 -31t-74.5 -12.5q-76 0 -135 36t-92.5 95.5t-33.5 130.5t31 131t85.5 96t124.5 36zM291 430q-62 0 -102 -41.5t-50 -100.5h301
q-5 49 -27.5 80t-54.5 46.5t-67 15.5zM471 718v-80h-350v80h350z" />
    <glyph glyph-name="Edotaccent" unicode="&#x116;" horiz-adv-x="649" 
d="M526 386v-85h-326v-216h369v-85h-459v670h459v-85h-369v-199h326zM340 890q26 0 44.5 -18.5t18.5 -44.5q0 -25 -18.5 -44t-44.5 -19t-44.5 19t-18.5 44q0 26 18.5 44.5t44.5 18.5z" />
    <glyph glyph-name="edotaccent" unicode="&#x117;" horiz-adv-x="571" 
d="M291 510q77 0 128 -32t76.5 -87t25.5 -124v-49h-384q6 -42 29 -77t60 -55.5t85 -20.5q54 0 101 27.5t79 60.5l-1 -89q-14 -17 -41.5 -35.5t-63 -31t-74.5 -12.5q-76 0 -135 36t-92.5 95.5t-33.5 130.5t31 131t85.5 96t124.5 36zM291 430q-62 0 -102 -41.5t-50 -100.5h301
q-5 49 -27.5 80t-54.5 46.5t-67 15.5zM296 720q26 0 44.5 -18.5t18.5 -44.5q0 -25 -18.5 -44t-44.5 -19t-44.5 19t-18.5 44q0 26 18.5 44.5t44.5 18.5z" />
    <glyph glyph-name="Eogonek" unicode="&#x118;" horiz-adv-x="649" 
d="M526 386v-85h-326v-216h369v-85h-459v670h459v-85h-369v-199h326zM489 1h80q-23 -9 -48 -24t-42 -34t-17 -41q0 -21 13.5 -36t39.5 -15q17 0 30 5.5t24 12.5v-69q-10 -5 -28.5 -15t-45.5 -10q-45 0 -81 25t-36 74q0 35 20 61t46.5 42.5t44.5 23.5z" />
    <glyph glyph-name="eogonek" unicode="&#x119;" horiz-adv-x="571" 
d="M291 510q77 0 128 -32t76.5 -87t25.5 -124v-49h-384q6 -42 29 -77t60 -55.5t85 -20.5q54 0 101 27.5t79 60.5l-1 -89q-14 -17 -41.5 -35.5t-63 -31t-74.5 -12.5q-76 0 -135 36t-92.5 95.5t-33.5 130.5t31 131t85.5 96t124.5 36zM291 430q-62 0 -102 -41.5t-50 -100.5h301
q-5 49 -27.5 80t-54.5 46.5t-67 15.5zM321 1h80q-23 -9 -48 -24t-42 -34t-17 -41q0 -21 13.5 -36t39.5 -15q17 0 30 5.5t24 12.5v-69q-10 -5 -28.5 -15t-45.5 -10q-45 0 -81 25t-36 74q0 35 20 61t46.5 42.5t44.5 23.5z" />
    <glyph glyph-name="Ecaron" unicode="&#x11a;" horiz-adv-x="649" 
d="M526 386v-85h-326v-216h369v-85h-459v670h459v-85h-369v-199h326zM178 890h82l80 -78l80 78h82l-140 -139h-44z" />
    <glyph glyph-name="ecaron" unicode="&#x11b;" horiz-adv-x="571" 
d="M291 510q77 0 128 -32t76.5 -87t25.5 -124v-49h-384q6 -42 29 -77t60 -55.5t85 -20.5q54 0 101 27.5t79 60.5l-1 -89q-14 -17 -41.5 -35.5t-63 -31t-74.5 -12.5q-76 0 -135 36t-92.5 95.5t-33.5 130.5t31 131t85.5 96t124.5 36zM291 430q-62 0 -102 -41.5t-50 -100.5h301
q-5 49 -27.5 80t-54.5 46.5t-67 15.5zM134 720h82l80 -78l80 78h82l-140 -139h-44z" />
    <glyph glyph-name="uni0122" unicode="&#x122;" horiz-adv-x="701" 
d="M366 366h295v-275q-24 -26 -62 -50.5t-87.5 -40t-108.5 -15.5q-76 0 -140 27.5t-112 75.5t-74.5 111.5t-26.5 135.5t26.5 135.5t74.5 111.5t112 75.5t140 27.5q73 0 119.5 -20t81.5 -52v-99q-22 16 -49.5 35t-64 33.5t-87.5 14.5q-75 0 -134 -34t-93 -93.5t-34 -134.5
t34 -134t93 -93.5t134 -34.5q51 0 82 10.5t49 24t29 22.5l1 156h-198v80zM372 -22q43 0 75 -26t32 -68q0 -35 -16.5 -59.5t-40 -37t-46.5 -12.5q-21 0 -36.5 5.5t-25.5 12.5v52q22 -18 54 -18q27 0 42.5 15t15.5 39q0 23 -17.5 36t-36.5 13v48z" />
    <glyph glyph-name="uni0123" unicode="&#x123;" 
d="M291 510q43 0 87.5 -20.5t76.5 -56.5v67h82v-490q0 -89 -36 -148t-96 -88t-131 -29q-46 0 -78.5 10.5t-55.5 26t-42 29.5v88q15 -11 39.5 -28.5t59 -31.5t77.5 -14q49 0 90 18t66 53t25 84v105q-26 -40 -70.5 -70t-101.5 -30q-64 0 -117 32.5t-84.5 90.5t-31.5 134
q0 83 31.5 143t86.5 92.5t123 32.5zM306 429q-54 0 -92 -26.5t-58.5 -69t-20.5 -91.5q0 -48 20 -88t56.5 -64t84.5 -24q46 0 82 24t57 66t20 95l-1 96q-31 39 -66.5 60.5t-81.5 21.5zM345 522q-43 0 -75 26t-32 68q0 35 16.5 59.5t40 37t46.5 12.5q21 0 36.5 -5.5
t25.5 -12.5v-52q-22 18 -54 18q-27 0 -42.5 -15t-15.5 -39q0 -23 17.5 -36t36.5 -13v-48z" />
    <glyph glyph-name="Imacron" unicode="&#x12a;" horiz-adv-x="536" 
d="M426 85v-85h-316v85h113v500h-113v85h316v-85h-113v-500h113zM447 888v-80h-350v80h350z" />
    <glyph glyph-name="imacron" unicode="&#x12b;" horiz-adv-x="440" 
d="M385 718v-80h-350v80h350zM283 500v-500h-82v423h-79v77h161z" />
    <glyph glyph-name="Iogonek" unicode="&#x12e;" horiz-adv-x="536" 
d="M426 85v-85h-316v85h113v500h-113v85h316v-85h-113v-500h113zM235 1h80q-23 -9 -48 -24t-42 -34t-17 -41q0 -21 13.5 -36t39.5 -15q17 0 30 5.5t24 12.5v-69q-10 -5 -28.5 -15t-45.5 -10q-45 0 -81 25t-36 74q0 35 20 61t46.5 42.5t44.5 23.5z" />
    <glyph glyph-name="iogonek" unicode="&#x12f;" horiz-adv-x="291" 
d="M136 1h80q-23 -9 -48 -24t-42 -34t-17 -41q0 -21 13.5 -36t39.5 -15q17 0 30 5.5t24 12.5v-69q-10 -5 -28.5 -15t-45.5 -10q-45 0 -81 25t-36 74q0 35 20 61t46.5 42.5t44.5 23.5zM148 740q29 0 48.5 -20.5t19.5 -47.5q0 -26 -19.5 -47t-48.5 -21t-48.5 21t-19.5 47
q0 27 19.5 47.5t48.5 20.5zM199 500v-500h-82v423h-79v77h161z" />
    <glyph glyph-name="dotlessi" unicode="&#x131;" horiz-adv-x="301" 
d="M216 500v-500h-82v423h-79v77h161z" />
    <glyph glyph-name="IJ" unicode="&#x132;" horiz-adv-x="851" 
d="M426 85v-85h-316v85h113v500h-113v85h316v-85h-113v-500h113zM741 672v-638q0 -85 -28 -141t-76.5 -90.5t-111.5 -57.5l-44 87q170 61 170 184v656h90z" />
    <glyph glyph-name="ij" unicode="&#x133;" horiz-adv-x="597" 
d="M165 740q29 0 48.5 -20.5t19.5 -47.5q0 -26 -19.5 -47t-48.5 -21t-48.5 21t-19.5 47q0 27 19.5 47.5t48.5 20.5zM216 500v-500h-82v423h-79v77h161zM459 740q29 0 48.5 -20.5t19.5 -47.5q0 -26 -19.5 -47t-48.5 -21t-48.5 21t-19.5 47q0 27 19.5 47.5t48.5 20.5zM512 500
v-498q0 -101 -46.5 -163t-125.5 -94l-37 74q66 32 96.5 71t30.5 100v433h-79v77h161z" />
    <glyph glyph-name="uni0136" unicode="&#x136;" horiz-adv-x="672" 
d="M200 670v-352l306 352h126l-281 -309l311 -361h-125l-251 289l-86 -94v-195h-90v670h90zM302 -22q43 0 75 -26t32 -68q0 -35 -16.5 -59.5t-40 -37t-46.5 -12.5q-21 0 -36.5 5.5t-25.5 12.5v52q22 -18 54 -18q27 0 42.5 15t15.5 39q0 23 -17.5 36t-36.5 13v48z" />
    <glyph glyph-name="uni0137" unicode="&#x137;" horiz-adv-x="545" 
d="M527 500l-232 -218l245 -282h-104l-198 228l-71 -66v-162h-82v720h82v-464l249 244h111zM244 -22q43 0 75 -26t32 -68q0 -35 -16.5 -59.5t-40 -37t-46.5 -12.5q-21 0 -36.5 5.5t-25.5 12.5v52q22 -18 54 -18q27 0 42.5 15t15.5 39q0 23 -17.5 36t-36.5 13v48z" />
    <glyph glyph-name="Lacute" unicode="&#x139;" horiz-adv-x="636" 
d="M200 670v-585h369v-85h-459v670h90zM343 890l-142 -135h-82l110 135h114z" />
    <glyph glyph-name="lacute" unicode="&#x13a;" horiz-adv-x="252" 
d="M167 720v-720h-82v720h82zM298 940l-142 -135h-82l110 135h114z" />
    <glyph glyph-name="uni013B" unicode="&#x13b;" horiz-adv-x="636" 
d="M200 670v-585h369v-85h-459v670h90zM292 -22q43 0 75 -26t32 -68q0 -35 -16.5 -59.5t-40 -37t-46.5 -12.5q-21 0 -36.5 5.5t-25.5 12.5v52q22 -18 54 -18q27 0 42.5 15t15.5 39q0 23 -17.5 36t-36.5 13v48z" />
    <glyph glyph-name="uni013C" unicode="&#x13c;" horiz-adv-x="252" 
d="M167 720v-720h-82v720h82zM92 -22q43 0 75 -26t32 -68q0 -35 -16.5 -59.5t-40 -37t-46.5 -12.5q-21 0 -36.5 5.5t-25.5 12.5v52q22 -18 54 -18q27 0 42.5 15t15.5 39q0 23 -17.5 36t-36.5 13v48z" />
    <glyph glyph-name="Lcaron" unicode="&#x13d;" horiz-adv-x="581" 
d="M275 718h87l-30 -188h-67zM200 670v-585h369v-85h-459v670h90z" />
    <glyph glyph-name="lcaron" unicode="&#x13e;" horiz-adv-x="372" 
d="M167 720v-720h-82v720h82zM265 718h87l-30 -188h-67z" />
    <glyph glyph-name="Ldot" unicode="&#x13f;" horiz-adv-x="588" 
d="M200 670v-585h369v-85h-459v670h90zM409 462q29 0 49.5 -20.5t20.5 -49.5q0 -28 -20.5 -49t-49.5 -21t-49.5 21t-20.5 49q0 29 20.5 49.5t49.5 20.5z" />
    <glyph glyph-name="ldot" unicode="&#x140;" horiz-adv-x="375" 
d="M167 720v-720h-82v720h82zM285 509q29 0 49.5 -20.5t20.5 -49.5q0 -28 -20.5 -49t-49.5 -21t-49.5 21t-20.5 49q0 29 20.5 49.5t49.5 20.5z" />
    <glyph glyph-name="Lslash" unicode="&#x141;" horiz-adv-x="636" 
d="M291 517v-76l-91 -67v-289h369v-85h-459v307l-100 -74v76l100 74v287h90v-220z" />
    <glyph glyph-name="lslash" unicode="&#x142;" horiz-adv-x="301" 
d="M291 517v-76l-109 -81v-360h-82v300l-90 -67v76l90 67v344h82v-284z" />
    <glyph glyph-name="Nacute" unicode="&#x143;" horiz-adv-x="779" 
d="M669 670v-670h-34l-435 479v-479h-90v670h34l435 -485v485h90zM559 890l-142 -135h-82l110 135h114z" />
    <glyph glyph-name="nacute" unicode="&#x144;" horiz-adv-x="585" 
d="M167 500v-79q16 20 41 40.5t56.5 34.5t65.5 14q51 0 93 -22.5t67 -68t25 -114.5v-305h-82l-1 297q0 65 -28.5 99t-87.5 34q-40 0 -79.5 -29.5t-69.5 -68.5v-332h-82v500h82zM478 720l-142 -135h-82l110 135h114z" />
    <glyph glyph-name="uni0145" unicode="&#x145;" horiz-adv-x="779" 
d="M669 670v-670h-34l-435 479v-479h-90v670h34l435 -485v485h90zM355 -22q43 0 75 -26t32 -68q0 -35 -16.5 -59.5t-40 -37t-46.5 -12.5q-21 0 -36.5 5.5t-25.5 12.5v52q22 -18 54 -18q27 0 42.5 15t15.5 39q0 23 -17.5 36t-36.5 13v48z" />
    <glyph glyph-name="uni0146" unicode="&#x146;" horiz-adv-x="585" 
d="M167 500v-79q16 20 41 40.5t56.5 34.5t65.5 14q51 0 93 -22.5t67 -68t25 -114.5v-305h-82l-1 297q0 65 -28.5 99t-87.5 34q-40 0 -79.5 -29.5t-69.5 -68.5v-332h-82v500h82zM264 -22q43 0 75 -26t32 -68q0 -35 -16.5 -59.5t-40 -37t-46.5 -12.5q-21 0 -36.5 5.5
t-25.5 12.5v52q22 -18 54 -18q27 0 42.5 15t15.5 39q0 23 -17.5 36t-36.5 13v48z" />
    <glyph glyph-name="Ncaron" unicode="&#x147;" horiz-adv-x="779" 
d="M669 670v-670h-34l-435 479v-479h-90v670h34l435 -485v485h90zM225 890h82l80 -78l80 78h82l-140 -139h-44z" />
    <glyph glyph-name="ncaron" unicode="&#x148;" horiz-adv-x="585" 
d="M167 500v-79q16 20 41 40.5t56.5 34.5t65.5 14q51 0 93 -22.5t67 -68t25 -114.5v-305h-82l-1 297q0 65 -28.5 99t-87.5 34q-40 0 -79.5 -29.5t-69.5 -68.5v-332h-82v500h82zM144 720h82l80 -78l80 78h82l-140 -139h-44z" />
    <glyph glyph-name="Eng" unicode="&#x14a;" horiz-adv-x="761" 
d="M651 672v-638q0 -85 -28 -141t-76.5 -90.5t-111.5 -57.5l-44 87q170 61 170 184v75l-354 378v-469h-97v670h36l415 -444v446h90z" />
    <glyph glyph-name="eng" unicode="&#x14b;" horiz-adv-x="585" 
d="M167 500v-79q16 20 41 40.5t56.5 34.5t65.5 14q51 0 93 -22.5t67 -68t25 -114.5v-318q0 -86 -46.5 -148t-125.5 -94l-37 74q66 32 96.5 73.5t30.5 102.5v5l-1 297q0 65 -28.5 99t-87.5 34q-40 0 -79.5 -29.5t-69.5 -68.5v-332h-82v500h82z" />
    <glyph glyph-name="Omacron" unicode="&#x14c;" horiz-adv-x="806" 
d="M403 685q76 0 140 -27.5t112 -75.5t74.5 -111.5t26.5 -135.5t-26.5 -135.5t-74.5 -111.5t-112 -75.5t-140 -27.5t-140 27.5t-112 75.5t-74.5 111.5t-26.5 135.5t26.5 135.5t74.5 111.5t112 75.5t140 27.5zM403 597q-75 0 -134 -34t-93 -93.5t-34 -134.5t34 -134t93 -93.5
t134 -34.5t134 34.5t93 93.5t34 134t-34 134.5t-93 93.5t-134 34zM578 888v-80h-350v80h350z" />
    <glyph glyph-name="omacron" unicode="&#x14d;" 
d="M311 510q76 0 135 -36t92.5 -96t33.5 -131t-33.5 -130.5t-92.5 -95.5t-135 -36t-135 36t-92.5 95.5t-33.5 130.5t33.5 131t92.5 96t135 36zM311 430q-53 0 -93 -25.5t-61.5 -67t-21.5 -90.5q0 -48 21.5 -89.5t61.5 -67t93 -25.5q54 0 93.5 25.5t61 67t21.5 89.5
q0 49 -21.5 90.5t-61 67t-93.5 25.5zM486 718v-80h-350v80h350z" />
    <glyph glyph-name="Ohungarumlaut" unicode="&#x150;" horiz-adv-x="806" 
d="M403 685q76 0 140 -27.5t112 -75.5t74.5 -111.5t26.5 -135.5t-26.5 -135.5t-74.5 -111.5t-112 -75.5t-140 -27.5t-140 27.5t-112 75.5t-74.5 111.5t-26.5 135.5t26.5 135.5t74.5 111.5t112 75.5t140 27.5zM403 597q-75 0 -134 -34t-93 -93.5t-34 -134.5t34 -134t93 -93.5
t134 -34.5t134 34.5t93 93.5t34 134t-34 134.5t-93 93.5t-134 34zM625 890l-142 -135h-82l110 135h114zM474 890l-142 -135h-82l110 135h114z" />
    <glyph glyph-name="ohungarumlaut" unicode="&#x151;" 
d="M311 510q76 0 135 -36t92.5 -96t33.5 -131t-33.5 -130.5t-92.5 -95.5t-135 -36t-135 36t-92.5 95.5t-33.5 130.5t33.5 131t92.5 96t135 36zM311 430q-53 0 -93 -25.5t-61.5 -67t-21.5 -90.5q0 -48 21.5 -89.5t61.5 -67t93 -25.5q54 0 93.5 25.5t61 67t21.5 89.5
q0 49 -21.5 90.5t-61 67t-93.5 25.5zM533 720l-142 -135h-82l110 135h114zM382 720l-142 -135h-82l110 135h114z" />
    <glyph glyph-name="OE" unicode="&#x152;" horiz-adv-x="1038" 
d="M496 670v-95h-93q-70 0 -127 -28.5t-90.5 -82.5t-33.5 -129t33.5 -128.5t90.5 -82.5t127 -29h93v-95h-93q-72 0 -136 25t-112.5 70.5t-76.5 106.5t-28 133t28 133t76.5 106.5t112.5 70.5t136 25h93zM915 386v-85h-326v-216h369v-85h-459v670h459v-85h-369v-199h326z" />
    <glyph glyph-name="oe" unicode="&#x153;" horiz-adv-x="1014" 
d="M311 510q76 0 135 -36t92.5 -96t33.5 -131t-33.5 -130.5t-92.5 -95.5t-135 -36t-135 36t-92.5 95.5t-33.5 130.5t33.5 131t92.5 96t135 36zM311 430q-53 0 -93 -25.5t-61.5 -67t-21.5 -90.5q0 -48 21.5 -89.5t61.5 -67t93 -25.5q54 0 93.5 25.5t61 67t21.5 89.5
q0 49 -21.5 90.5t-61 67t-93.5 25.5zM734 510q77 0 128 -32t76.5 -87t25.5 -124v-49h-384q6 -42 29 -77t60 -55.5t85 -20.5q54 0 101 27.5t79 60.5l-1 -89q-14 -17 -41.5 -35.5t-63 -31t-74.5 -12.5q-76 0 -135 36t-92.5 95.5t-33.5 130.5t31 131t85.5 96t124.5 36zM734 430
q-62 0 -102 -41.5t-50 -100.5h301q-5 49 -27.5 80t-54.5 46.5t-67 15.5z" />
    <glyph glyph-name="Racute" unicode="&#x154;" horiz-adv-x="636" 
d="M367 670q58 0 111 -21.5t87.5 -66t34.5 -113.5q0 -62 -35.5 -105t-90 -64.5t-112.5 -21.5q-18 0 -48 2l312 -280h-138l-288 280v-280h-90v670h257zM200 585v-215q33 -9 72 -14t77 -5q76 0 117.5 32t41.5 86q0 56 -45.5 86t-110.5 30h-152zM480 890l-142 -135h-82l110 135
h114z" />
    <glyph glyph-name="racute" unicode="&#x155;" horiz-adv-x="393" 
d="M167 500v-100q29 50 70 80t84 30q29 0 52 -10v-95q-32 19 -64 19q-51 0 -82.5 -36t-59.5 -86v-302h-82v500h82zM399 720l-142 -135h-82l110 135h114z" />
    <glyph glyph-name="uni0156" unicode="&#x156;" horiz-adv-x="636" 
d="M367 670q58 0 111 -21.5t87.5 -66t34.5 -113.5q0 -62 -35.5 -105t-90 -64.5t-112.5 -21.5q-18 0 -48 2l312 -280h-138l-288 280v-280h-90v670h257zM200 585v-215q33 -9 72 -14t77 -5q76 0 117.5 32t41.5 86q0 56 -45.5 86t-110.5 30h-152zM332 -22q43 0 75 -26t32 -68
q0 -35 -16.5 -59.5t-40 -37t-46.5 -12.5q-21 0 -36.5 5.5t-25.5 12.5v52q22 -18 54 -18q27 0 42.5 15t15.5 39q0 23 -17.5 36t-36.5 13v48z" />
    <glyph glyph-name="uni0157" unicode="&#x157;" horiz-adv-x="393" 
d="M167 500v-100q29 50 70 80t84 30q29 0 52 -10v-95q-32 19 -64 19q-51 0 -82.5 -36t-59.5 -86v-302h-82v500h82zM96 -22q43 0 75 -26t32 -68q0 -35 -16.5 -59.5t-40 -37t-46.5 -12.5q-21 0 -36.5 5.5t-25.5 12.5v52q22 -18 54 -18q27 0 42.5 15t15.5 39q0 23 -17.5 36
t-36.5 13v48z" />
    <glyph glyph-name="Rcaron" unicode="&#x158;" horiz-adv-x="636" 
d="M367 670q58 0 111 -21.5t87.5 -66t34.5 -113.5q0 -62 -35.5 -105t-90 -64.5t-112.5 -21.5q-18 0 -48 2l312 -280h-138l-288 280v-280h-90v670h257zM200 585v-215q33 -9 72 -14t77 -5q76 0 117.5 32t41.5 86q0 56 -45.5 86t-110.5 30h-152zM146 890h82l80 -78l80 78h82
l-140 -139h-44z" />
    <glyph glyph-name="rcaron" unicode="&#x159;" horiz-adv-x="393" 
d="M167 500v-100q29 50 70 80t84 30q29 0 52 -10v-95q-32 19 -64 19q-51 0 -82.5 -36t-59.5 -86v-302h-82v500h82zM65 720h82l80 -78l80 78h82l-140 -139h-44z" />
    <glyph glyph-name="Sacute" unicode="&#x15a;" horiz-adv-x="523" 
d="M272 680q59 0 97.5 -17t67.5 -36v-93q-28 21 -68 39.5t-87 18.5q-30 0 -62.5 -10.5t-54.5 -33.5t-22 -59q0 -40 29 -61t70 -40l92 -42q69 -31 104 -69t35 -101q0 -55 -32 -96.5t-84 -65.5t-114 -24q-58 0 -107 20t-85 45v93q39 -27 89.5 -48.5t114.5 -21.5q50 0 88 25
t38 69q0 25 -15.5 43t-37.5 31t-43 22l-111 50q-72 32 -98 75t-26 99q0 53 30.5 95.5t81.5 67.5t110 25zM445 890l-142 -135h-82l110 135h114z" />
    <glyph glyph-name="sacute" unicode="&#x15b;" horiz-adv-x="428" 
d="M234 510q44 0 82 -12.5t55 -25.5v-88q-21 16 -57 31t-74 15q-47 0 -70.5 -22t-23.5 -46q0 -19 13.5 -38.5t47.5 -31.5l84 -30q49 -17 73 -49t24 -75q0 -42 -23.5 -77t-65 -55.5t-95.5 -20.5q-29 0 -60.5 7.5t-56.5 18t-37 18.5v88q14 -10 39.5 -22.5t54.5 -21t54 -8.5
q47 0 74.5 21t27.5 52q0 24 -18.5 38t-53.5 27l-74 27q-58 22 -77 55.5t-19 76.5q0 64 48 106t128 42zM404 720l-142 -135h-82l110 135h114z" />
    <glyph glyph-name="Scedilla" unicode="&#x15e;" horiz-adv-x="523" 
d="M272 680q59 0 97.5 -17t67.5 -36v-93q-28 21 -68 39.5t-87 18.5q-30 0 -62.5 -10.5t-54.5 -33.5t-22 -59q0 -40 29 -61t70 -40l92 -42q69 -31 104 -69t35 -101q0 -55 -32 -96.5t-84 -65.5t-114 -24q-58 0 -107 20t-85 45v93q39 -27 89.5 -48.5t114.5 -21.5q50 0 88 25
t38 69q0 25 -15.5 43t-37.5 31t-43 22l-111 50q-72 32 -98 75t-26 99q0 53 30.5 95.5t81.5 67.5t110 25zM288 2l-6 -72q41 5 68.5 -17.5t27.5 -59.5q0 -40 -29 -66.5t-81 -26.5q-15 0 -38.5 6t-39.5 19l7 55q16 -8 34 -14.5t40 -6.5q17 0 28 9t11 22q0 29 -39 29
q-7 0 -16 -2t-19 -7l-16 12l14 120h54z" />
    <glyph glyph-name="scedilla" unicode="&#x15f;" horiz-adv-x="428" 
d="M234 510q44 0 82 -12.5t55 -25.5v-88q-21 16 -57 31t-74 15q-47 0 -70.5 -22t-23.5 -46q0 -19 13.5 -38.5t47.5 -31.5l84 -30q49 -17 73 -49t24 -75q0 -42 -23.5 -77t-65 -55.5t-95.5 -20.5q-29 0 -60.5 7.5t-56.5 18t-37 18.5v88q14 -10 39.5 -22.5t54.5 -21t54 -8.5
q47 0 74.5 21t27.5 52q0 24 -18.5 38t-53.5 27l-74 27q-58 22 -77 55.5t-19 76.5q0 64 48 106t128 42zM232 2l-6 -72q41 5 68.5 -17.5t27.5 -59.5q0 -40 -29 -66.5t-81 -26.5q-15 0 -38.5 6t-39.5 19l7 55q16 -8 34 -14.5t40 -6.5q17 0 28 9t11 22q0 29 -39 29q-7 0 -16 -2
t-19 -7l-16 12l14 120h54z" />
    <glyph glyph-name="Scaron" unicode="&#x160;" horiz-adv-x="523" 
d="M272 680q59 0 97.5 -17t67.5 -36v-93q-28 21 -68 39.5t-87 18.5q-30 0 -62.5 -10.5t-54.5 -33.5t-22 -59q0 -40 29 -61t70 -40l92 -42q69 -31 104 -69t35 -101q0 -55 -32 -96.5t-84 -65.5t-114 -24q-58 0 -107 20t-85 45v93q39 -27 89.5 -48.5t114.5 -21.5q50 0 88 25
t38 69q0 25 -15.5 43t-37.5 31t-43 22l-111 50q-72 32 -98 75t-26 99q0 53 30.5 95.5t81.5 67.5t110 25zM111 890h82l80 -78l80 78h82l-140 -139h-44z" />
    <glyph glyph-name="scaron" unicode="&#x161;" horiz-adv-x="428" 
d="M234 510q44 0 82 -12.5t55 -25.5v-88q-21 16 -57 31t-74 15q-47 0 -70.5 -22t-23.5 -46q0 -19 13.5 -38.5t47.5 -31.5l84 -30q49 -17 73 -49t24 -75q0 -42 -23.5 -77t-65 -55.5t-95.5 -20.5q-29 0 -60.5 7.5t-56.5 18t-37 18.5v88q14 -10 39.5 -22.5t54.5 -21t54 -8.5
q47 0 74.5 21t27.5 52q0 24 -18.5 38t-53.5 27l-74 27q-58 22 -77 55.5t-19 76.5q0 64 48 106t128 42zM70 720h82l80 -78l80 78h82l-140 -139h-44z" />
    <glyph glyph-name="uni0162" unicode="&#x162;" horiz-adv-x="611" 
d="M582 670v-85h-231v-582h-90v582h-231v85h552zM332 2l-6 -72q41 5 68.5 -17.5t27.5 -59.5q0 -40 -29 -66.5t-81 -26.5q-15 0 -38.5 6t-39.5 19l7 55q16 -8 34 -14.5t40 -6.5q17 0 28 9t11 22q0 29 -39 29q-7 0 -16 -2t-19 -7l-16 12l14 120h54z" />
    <glyph glyph-name="uni0163" unicode="&#x163;" horiz-adv-x="433" 
d="M223 644v-144h146v-77h-146v-293q0 -31 16 -49t49 -18q30 0 50 7.5t35 16.5v-67q-20 -16 -42.5 -25.5t-60.5 -9.5q-64 0 -96.5 38.5t-32.5 102.5v297h-96v24q49 22 82 72.5t58 124.5h38zM280 2l-6 -72q41 5 68.5 -17.5t27.5 -59.5q0 -40 -29 -66.5t-81 -26.5
q-15 0 -38.5 6t-39.5 19l7 55q16 -8 34 -14.5t40 -6.5q17 0 28 9t11 22q0 29 -39 29q-7 0 -16 -2t-19 -7l-16 12l14 120h54z" />
    <glyph glyph-name="Tcaron" unicode="&#x164;" horiz-adv-x="611" 
d="M582 670v-85h-231v-582h-90v582h-231v85h552zM144 890h82l80 -78l80 78h82l-140 -139h-44z" />
    <glyph glyph-name="tcaron" unicode="&#x165;" horiz-adv-x="442" 
d="M295 718h87l-30 -188h-67zM223 644v-144h146v-77h-146v-293q0 -31 16 -49t49 -18q30 0 50 7.5t35 16.5v-67q-20 -16 -42.5 -25.5t-60.5 -9.5q-64 0 -96.5 38.5t-32.5 102.5v297h-96v24q49 22 82 72.5t58 124.5h38z" />
    <glyph glyph-name="Tbar" unicode="&#x166;" horiz-adv-x="611" 
d="M582 670v-85h-231v-582h-90v582h-231v85h552zM481 888v-80h-350v80h350z" />
    <glyph glyph-name="tbar" unicode="&#x167;" horiz-adv-x="428" 
d="M363 293v-70h-140v-93q0 -31 16 -49t49 -18q30 0 50 7.5t35 16.5v-67q-20 -16 -42.5 -25.5t-60.5 -9.5q-64 0 -96.5 38.5t-32.5 102.5v97h-98v70h98v130h-96v24q49 22 82 72.5t58 124.5h38v-144h146v-77h-146v-130h140z" />
    <glyph glyph-name="Umacron" unicode="&#x16a;" horiz-adv-x="752" 
d="M652 672v-407q0 -87 -36.5 -149.5t-98.5 -95.5t-141 -33q-78 0 -140.5 33t-99 95.5t-36.5 149.5v407h90v-404q0 -68 25.5 -110t68 -60.5t92.5 -18.5q50 1 92.5 19.5t68 60t25.5 109.5v404h90zM551 888v-80h-350v80h350z" />
    <glyph glyph-name="umacron" unicode="&#x16b;" horiz-adv-x="564" 
d="M494 500v-296q0 -66 -28 -114t-76 -74t-108 -26t-108 26t-76 74t-28 114v296h85v-296q0 -65 38.5 -99.5t88.5 -34.5t88.5 34.5t38.5 99.5v296h85zM462 718v-80h-350v80h350z" />
    <glyph glyph-name="Uring" unicode="&#x16e;" horiz-adv-x="752" 
d="M652 672v-407q0 -87 -36.5 -149.5t-98.5 -95.5t-141 -33q-78 0 -140.5 33t-99 95.5t-36.5 149.5v407h90v-404q0 -68 25.5 -110t68 -60.5t92.5 -18.5q50 1 92.5 19.5t68 60t25.5 109.5v404h90zM376 895q36 0 59 -24.5t23 -58.5t-23 -58.5t-59 -24.5t-59.5 24.5t-23.5 58.5
t23.5 58.5t59.5 24.5zM376 854q-17 0 -29 -12.5t-12 -29.5t12 -29.5t29 -12.5t28.5 12.5t11.5 29.5t-11.5 29.5t-28.5 12.5z" />
    <glyph glyph-name="uring" unicode="&#x16f;" horiz-adv-x="564" 
d="M494 500v-296q0 -66 -28 -114t-76 -74t-108 -26t-108 26t-76 74t-28 114v296h85v-296q0 -65 38.5 -99.5t88.5 -34.5t88.5 34.5t38.5 99.5v296h85zM287 725q36 0 59 -24.5t23 -58.5t-23 -58.5t-59 -24.5t-59.5 24.5t-23.5 58.5t23.5 58.5t59.5 24.5zM287 684
q-17 0 -29 -12.5t-12 -29.5t12 -29.5t29 -12.5t28.5 12.5t11.5 29.5t-11.5 29.5t-28.5 12.5z" />
    <glyph glyph-name="Uhungarumlaut" unicode="&#x170;" horiz-adv-x="752" 
d="M652 672v-407q0 -87 -36.5 -149.5t-98.5 -95.5t-141 -33q-78 0 -140.5 33t-99 95.5t-36.5 149.5v407h90v-404q0 -68 25.5 -110t68 -60.5t92.5 -18.5q50 1 92.5 19.5t68 60t25.5 109.5v404h90zM598 890l-142 -135h-82l110 135h114zM447 890l-142 -135h-82l110 135h114z
" />
    <glyph glyph-name="uhungarumlaut" unicode="&#x171;" horiz-adv-x="564" 
d="M494 500v-296q0 -66 -28 -114t-76 -74t-108 -26t-108 26t-76 74t-28 114v296h85v-296q0 -65 38.5 -99.5t88.5 -34.5t88.5 34.5t38.5 99.5v296h85zM509 720l-142 -135h-82l110 135h114zM358 720l-142 -135h-82l110 135h114z" />
    <glyph glyph-name="Uogonek" unicode="&#x172;" horiz-adv-x="752" 
d="M652 672v-407q0 -87 -36.5 -149.5t-98.5 -95.5t-141 -33q-78 0 -140.5 33t-99 95.5t-36.5 149.5v407h90v-404q0 -68 25.5 -110t68 -60.5t92.5 -18.5q50 1 92.5 19.5t68 60t25.5 109.5v404h90zM384 1h80q-23 -9 -48 -24t-42 -34t-17 -41q0 -21 13.5 -36t39.5 -15
q17 0 30 5.5t24 12.5v-69q-10 -5 -28.5 -15t-45.5 -10q-45 0 -81 25t-36 74q0 35 20 61t46.5 42.5t44.5 23.5z" />
    <glyph glyph-name="uogonek" unicode="&#x173;" horiz-adv-x="564" 
d="M494 500v-296q0 -66 -28 -114t-76 -74t-108 -26t-108 26t-76 74t-28 114v296h85v-296q0 -65 38.5 -99.5t88.5 -34.5t88.5 34.5t38.5 99.5v296h85zM287 1h80q-23 -9 -48 -24t-42 -34t-17 -41q0 -21 13.5 -36t39.5 -15q17 0 30 5.5t24 12.5v-69q-10 -5 -28.5 -15t-45.5 -10
q-45 0 -81 25t-36 74q0 35 20 61t46.5 42.5t44.5 23.5z" />
    <glyph glyph-name="Wcircumflex" unicode="&#x174;" horiz-adv-x="944" 
d="M934 670l-235 -670h-51l-180 507l-182 -507h-51l-225 670h98l157 -498l177 498l58 -1l172 -497l164 498h98zM494 890l140 -139h-82l-80 78l-80 -78h-82l140 139h44z" />
    <glyph glyph-name="wcircumflex" unicode="&#x175;" horiz-adv-x="756" 
d="M741 500l-175 -500h-51l-137 353l-137 -353h-51l-175 500h98l111 -351l131 351h46l131 -351l111 351h98zM401 720l140 -139h-82l-80 78l-80 -78h-82l140 139h44z" />
    <glyph glyph-name="Ycircumflex" unicode="&#x176;" horiz-adv-x="631" 
d="M621 670l-257 -395v-275h-97v262l-257 408h108l196 -316l199 316h108zM338 890l140 -139h-82l-80 78l-80 -78h-82l140 139h44z" />
    <glyph glyph-name="ycircumflex" unicode="&#x177;" horiz-adv-x="571" 
d="M113 500l175 -368l170 368h98l-368 -740h-95l143 270l-221 470h98zM307 720l140 -139h-82l-80 78l-80 -78h-82l140 139h44z" />
    <glyph glyph-name="Ydieresis" unicode="&#x178;" horiz-adv-x="631" 
d="M621 670l-257 -395v-275h-97v262l-257 408h108l196 -316l199 316h108zM421 889q26 0 44.5 -18.5t18.5 -44.5q0 -25 -18.5 -44t-44.5 -19t-44.5 19t-18.5 44q0 26 18.5 44.5t44.5 18.5zM211 889q26 0 44.5 -18.5t18.5 -44.5q0 -25 -18.5 -44t-44.5 -19t-44.5 19t-18.5 44
q0 26 18.5 44.5t44.5 18.5z" />
    <glyph glyph-name="Zacute" unicode="&#x179;" horiz-adv-x="672" 
d="M605 670v-36l-404 -549h404v-85h-538v36l393 549h-370v85h515zM519 890l-142 -135h-82l110 135h114z" />
    <glyph glyph-name="zacute" unicode="&#x17a;" horiz-adv-x="549" 
d="M484 500v-27l-301 -396h311v-77h-439v27l291 396h-271v77h409zM447 720l-142 -135h-82l110 135h114z" />
    <glyph glyph-name="Zdotaccent" unicode="&#x17b;" horiz-adv-x="672" 
d="M605 670v-36l-404 -549h404v-85h-538v36l393 549h-370v85h515zM347 890q26 0 44.5 -18.5t18.5 -44.5q0 -25 -18.5 -44t-44.5 -19t-44.5 19t-18.5 44q0 26 18.5 44.5t44.5 18.5z" />
    <glyph glyph-name="zdotaccent" unicode="&#x17c;" horiz-adv-x="549" 
d="M484 500v-27l-301 -396h311v-77h-439v27l291 396h-271v77h409zM275 720q26 0 44.5 -18.5t18.5 -44.5q0 -25 -18.5 -44t-44.5 -19t-44.5 19t-18.5 44q0 26 18.5 44.5t44.5 18.5z" />
    <glyph glyph-name="Zcaron" unicode="&#x17d;" horiz-adv-x="672" 
d="M605 670v-36l-404 -549h404v-85h-538v36l393 549h-370v85h515zM185 890h82l80 -78l80 78h82l-140 -139h-44z" />
    <glyph glyph-name="zcaron" unicode="&#x17e;" horiz-adv-x="549" 
d="M484 500v-27l-301 -396h311v-77h-439v27l291 396h-271v77h409zM113 720h82l80 -78l80 78h82l-140 -139h-44z" />
    <glyph glyph-name="circumflex" unicode="&#x2c6;" horiz-adv-x="484" 
d="M264 720l140 -139h-82l-80 78l-80 -78h-82l140 139h44z" />
    <glyph glyph-name="caron" unicode="&#x2c7;" horiz-adv-x="484" 
d="M80 720h82l80 -78l80 78h82l-140 -139h-44z" />
    <glyph glyph-name="breve" unicode="&#x2d8;" horiz-adv-x="484" 
d="M404 720q-2 -69 -48 -109.5t-114 -40.5q-67 0 -113.5 40.5t-48.5 109.5h72q5 -36 27.5 -59t62.5 -23t63 23t27 59h72z" />
    <glyph glyph-name="dotaccent" unicode="&#x2d9;" horiz-adv-x="300" 
d="M150 720q26 0 44.5 -18.5t18.5 -44.5q0 -25 -18.5 -44t-44.5 -19t-44.5 19t-18.5 44q0 26 18.5 44.5t44.5 18.5z" />
    <glyph glyph-name="ring" unicode="&#x2da;" horiz-adv-x="325" 
d="M163 725q36 0 59 -24.5t23 -58.5t-23 -58.5t-59 -24.5t-59.5 24.5t-23.5 58.5t23.5 58.5t59.5 24.5zM163 684q-17 0 -29 -12.5t-12 -29.5t12 -29.5t29 -12.5t28.5 12.5t11.5 29.5t-11.5 29.5t-28.5 12.5z" />
    <glyph glyph-name="ogonek" unicode="&#x2db;" horiz-adv-x="600" 
d="M294 1h80q-23 -9 -48 -24t-42 -34t-17 -41q0 -21 13.5 -36t39.5 -15q17 0 30 5.5t24 12.5v-69q-10 -5 -28.5 -15t-45.5 -10q-45 0 -81 25t-36 74q0 35 20 61t46.5 42.5t44.5 23.5z" />
    <glyph glyph-name="tilde" unicode="&#x2dc;" horiz-adv-x="470" 
d="M410 720q0 -43 -29.5 -73t-74.5 -30q-27 0 -44.5 7.5t-30 18t-24 18t-27.5 7.5q-17 0 -26.5 -13.5t-9.5 -32.5h-68q0 44 29.5 73.5t74.5 29.5q27 0 44.5 -7.5t30 -18t24 -18t27.5 -7.5q18 0 27 13.5t9 32.5h68z" />
    <glyph glyph-name="hungarumlaut" unicode="&#x2dd;" horiz-adv-x="475" 
d="M425 720l-142 -135h-82l110 135h114zM274 720l-142 -135h-82l110 135h114z" />
    <glyph glyph-name="uni0326" unicode="&#x326;" horiz-adv-x="0" 
d="M118 -22q43 0 75 -26t32 -68q0 -35 -16.5 -59.5t-40 -37t-46.5 -12.5q-21 0 -36.5 5.5t-25.5 12.5v52q22 -18 54 -18q27 0 42.5 15t15.5 39q0 23 -17.5 36t-36.5 13v48z" />
    <glyph glyph-name="Wgrave" unicode="&#x1e80;" horiz-adv-x="944" 
d="M934 670l-235 -670h-51l-180 507l-182 -507h-51l-225 670h98l157 -498l177 498l58 -1l172 -497l164 498h98zM293 890h114l110 -135h-82z" />
    <glyph glyph-name="wgrave" unicode="&#x1e81;" horiz-adv-x="756" 
d="M741 500l-175 -500h-51l-137 353l-137 -353h-51l-175 500h98l111 -351l131 351h46l131 -351l111 351h98zM200 720h114l110 -135h-82z" />
    <glyph glyph-name="Wacute" unicode="&#x1e82;" horiz-adv-x="944" 
d="M934 670l-235 -670h-51l-180 507l-182 -507h-51l-225 670h98l157 -498l177 498l58 -1l172 -497l164 498h98zM644 890l-142 -135h-82l110 135h114z" />
    <glyph glyph-name="wacute" unicode="&#x1e83;" horiz-adv-x="756" 
d="M741 500l-175 -500h-51l-137 353l-137 -353h-51l-175 500h98l111 -351l131 351h46l131 -351l111 351h98zM551 720l-142 -135h-82l110 135h114z" />
    <glyph glyph-name="Wdieresis" unicode="&#x1e84;" horiz-adv-x="944" 
d="M934 670l-235 -670h-51l-180 507l-182 -507h-51l-225 670h98l157 -498l177 498l58 -1l172 -497l164 498h98zM577 889q26 0 44.5 -18.5t18.5 -44.5q0 -25 -18.5 -44t-44.5 -19t-44.5 19t-18.5 44q0 26 18.5 44.5t44.5 18.5zM367 889q26 0 44.5 -18.5t18.5 -44.5
q0 -25 -18.5 -44t-44.5 -19t-44.5 19t-18.5 44q0 26 18.5 44.5t44.5 18.5z" />
    <glyph glyph-name="wdieresis" unicode="&#x1e85;" horiz-adv-x="756" 
d="M741 500l-175 -500h-51l-137 353l-137 -353h-51l-175 500h98l111 -351l131 351h46l131 -351l111 351h98zM484 719q26 0 44.5 -18.5t18.5 -44.5q0 -25 -18.5 -44t-44.5 -19t-44.5 19t-18.5 44q0 26 18.5 44.5t44.5 18.5zM274 719q26 0 44.5 -18.5t18.5 -44.5
q0 -25 -18.5 -44t-44.5 -19t-44.5 19t-18.5 44q0 26 18.5 44.5t44.5 18.5z" />
    <glyph glyph-name="Ygrave" unicode="&#x1ef2;" horiz-adv-x="631" 
d="M621 670l-257 -395v-275h-97v262l-257 408h108l196 -316l199 316h108zM137 890h114l110 -135h-82z" />
    <glyph glyph-name="ygrave" unicode="&#x1ef3;" horiz-adv-x="571" 
d="M113 500l175 -368l170 368h98l-368 -740h-95l143 270l-221 470h98zM106 720h114l110 -135h-82z" />
    <glyph glyph-name="endash" unicode="&#x2013;" horiz-adv-x="610" 
d="M550 298v-90h-490v90h490z" />
    <glyph glyph-name="emdash" unicode="&#x2014;" horiz-adv-x="888" 
d="M828 298v-90h-768v90h768z" />
    <glyph glyph-name="quoteleft" unicode="&#x2018;" horiz-adv-x="232" 
d="M150 688l62 -16l-90 -269l-82 28z" />
    <glyph glyph-name="quoteright" unicode="&#x2019;" horiz-adv-x="212" 
d="M110 688l82 -28l-110 -257l-62 16z" />
    <glyph glyph-name="quotesinglbase" unicode="&#x201a;" horiz-adv-x="312" 
d="M120 118l82 -28l-90 -267l-62 16z" />
    <glyph glyph-name="quotedblleft" unicode="&#x201c;" horiz-adv-x="432" 
d="M150 718l62 -16l-90 -269l-82 28zM330 718l62 -16l-90 -269l-82 28z" />
    <glyph glyph-name="quotedblright" unicode="&#x201d;" horiz-adv-x="432" 
d="M282 427l-62 16l90 269l82 -28zM102 427l-62 16l90 269l82 -28z" />
    <glyph glyph-name="quotedblbase" unicode="&#x201e;" horiz-adv-x="432" 
d="M282 -166l-62 16l90 269l82 -28zM102 -166l-62 16l90 269l82 -28z" />
    <glyph glyph-name="dagger" unicode="&#x2020;" horiz-adv-x="443" 
d="M403 520v-80h-133v-540h-97v540h-133v80h133v150h97v-150h133z" />
    <glyph glyph-name="daggerdbl" unicode="&#x2021;" horiz-adv-x="600" 
d="M403 265v-80h-133v-285h-97v285h-133v80h133v175h-133v80h133v150h97v-150h133v-80h-133v-175h133z" />
    <glyph glyph-name="bullet" unicode="&#x2022;" horiz-adv-x="423" 
d="M211 435q36 0 66 -18t48 -47.5t18 -66.5q0 -35 -18 -65t-48 -48t-66 -18t-66 18t-47.5 48t-17.5 65q0 37 17.5 66.5t47.5 47.5t66 18z" />
    <glyph glyph-name="ellipsis" unicode="&#x2026;" horiz-adv-x="840" 
d="M420 122q29 0 49.5 -20.5t20.5 -49.5q0 -28 -20.5 -49t-49.5 -21t-49.5 21t-20.5 49q0 29 20.5 49.5t49.5 20.5zM690 122q29 0 49.5 -20.5t20.5 -49.5q0 -28 -20.5 -49t-49.5 -21t-49.5 21t-20.5 49q0 29 20.5 49.5t49.5 20.5zM150 122q29 0 49.5 -20.5t20.5 -49.5
q0 -28 -20.5 -49t-49.5 -21t-49.5 21t-20.5 49q0 29 20.5 49.5t49.5 20.5z" />
    <glyph glyph-name="guilsinglleft" unicode="&#x2039;" horiz-adv-x="415" 
d="M315 32l-235 195v38l235 203v-105l-140 -117l140 -109v-105z" />
    <glyph glyph-name="guilsinglright" unicode="&#x203a;" horiz-adv-x="405" 
d="M100 468l235 -195v-38l-235 -203v105l140 117l-140 109v105z" />
    <glyph glyph-name="fraction" unicode="&#x2044;" horiz-adv-x="103" 
d="M353 670l-525 -670h-78l522 670h81z" />
    <glyph glyph-name="uni2074" unicode="&#x2074;" horiz-adv-x="292" 
d="M216 670v-178h36v-53h-36v-66h-60v66h-136v14q38 41 82.5 95.5t78.5 121.5h35zM156 562q-9 -13 -15.5 -22.5t-15 -20t-23.5 -27.5h54v70z" />
    <glyph glyph-name="Euro" unicode="&#x20ac;" horiz-adv-x="617" 
d="M472 303v-70h-256q17 -72 61.5 -116t118.5 -44q54 0 92.5 16.5t68.5 41.5v-90q-35 -28 -73 -42t-88 -14q-74 0 -130 32t-92 88.5t-51 127.5h-73v70h64q-1 16 -1 32v23h-63v70h71q14 74 50 132t92.5 91.5t132.5 33.5q53 0 98 -21.5t73 -50.5v-99q-28 28 -71 55.5
t-100 27.5q-76 0 -121 -46.5t-61 -122.5h258v-70h-266q-1 -11 -1 -23q0 -16 1 -32h266z" />
    <glyph glyph-name="trademark" unicode="&#x2122;" horiz-adv-x="511" 
d="M230 671v-42h-69v-162h-52v162h-69v42h190zM471 670v-203h-53v98l-42 -64h-18l-46 64v-98h-53v203h27l81 -107l78 107h26z" />
    <glyph glyph-name="minus" unicode="&#x2212;" horiz-adv-x="551" 
d="M471 358v-90h-391v90h391z" />
    <glyph glyph-name="uni2215" unicode="&#x2215;" horiz-adv-x="703" 
d="M653 670l-525 -670h-78l522 670h81z" />
    <glyph glyph-name="approxequal" unicode="&#x2248;" horiz-adv-x="524" 
d="M464 274q0 -52 -35.5 -88.5t-90.5 -36.5q-33 0 -54 9.5t-36 21.5t-29 21.5t-33 9.5q-21 0 -32.5 -16.5t-11.5 -39.5h-82q0 53 35.5 89t90.5 36q33 0 54 -9.5t36 -21.5t29 -21.5t33 -9.5q22 0 33 17t11 39h82zM464 489q0 -52 -35.5 -88.5t-90.5 -36.5q-33 0 -54 9.5
t-36 21.5t-29 21.5t-33 9.5q-21 0 -32.5 -16.5t-11.5 -39.5h-82q0 53 35.5 89t90.5 36q33 0 54 -9.5t36 -21.5t29 -21.5t33 -9.5q22 0 33 17t11 39h82z" />
    <glyph glyph-name="notequal" unicode="&#x2260;" horiz-adv-x="551" 
d="M471 263v-90h-238l-51 -91h-68l51 91h-85v90h135l53 95h-188v90h238l35 62h71l-35 -62h82v-90h-133l-54 -95h187z" />
    <glyph glyph-name="lessequal" unicode="&#x2264;" horiz-adv-x="533" 
d="M453 602l-373 -219v-42l373 -228v81l-283 169l283 158v81zM80 74v-74h373v74h-373z" />
    <glyph glyph-name="greaterequal" unicode="&#x2265;" horiz-adv-x="533" 
d="M80 602l373 -219v-42l-373 -228v81l283 169l-283 158v81zM453 74v-74h-373v74h373z" />
    </font>
</defs>
</svg>
